<svg xmlns="http://www.w3.org/2000/svg" style="display: none;">

  <symbol id="javascript" viewBox="0 0 128 128">
    <path fill="#F0DB4F" d="M1.408 1.408h125.184v125.185H1.408z"></path><path fill="#323330" d="M116.347 96.736c-.917-5.711-4.641-10.508-15.672-14.981-3.832-1.761-8.104-3.022-9.377-5.926-.452-1.69-.512-2.642-.226-3.665.821-3.32 4.784-4.355 7.925-3.403 2.023.678 3.938 2.237 5.093 4.724 5.402-3.498 5.391-3.475 9.163-5.879-1.381-2.141-2.118-3.129-3.022-4.045-3.249-3.629-7.676-5.498-14.756-5.355l-3.688.477c-3.534.893-6.902 2.748-8.877 5.235-5.926 6.724-4.236 18.492 2.975 23.335 7.104 5.332 17.54 6.545 18.873 11.531 1.297 6.104-4.486 8.08-10.234 7.378-4.236-.881-6.592-3.034-9.139-6.949-4.688 2.713-4.688 2.713-9.508 5.485 1.143 2.499 2.344 3.63 4.26 5.795 9.068 9.198 31.76 8.746 35.83-5.176.165-.478 1.261-3.666.38-8.581zM69.462 58.943H57.753l-.048 30.272c0 6.438.333 12.34-.714 14.149-1.713 3.558-6.152 3.117-8.175 2.427-2.059-1.012-3.106-2.451-4.319-4.485-.333-.584-.583-1.036-.667-1.071l-9.52 5.83c1.583 3.249 3.915 6.069 6.902 7.901 4.462 2.678 10.459 3.499 16.731 2.059 4.082-1.189 7.604-3.652 9.448-7.401 2.666-4.915 2.094-10.864 2.07-17.444.06-10.735.001-21.468.001-32.237z"></path>
  </symbol>

  <symbol id="typescript" viewBox="0 0 128 128">
    <path fill="#fff" d="M22.67 47h99.67v73.67H22.67z"></path><path data-name="original" fill="#007acc" d="M1.5 63.91v62.5h125v-125H1.5zm100.73-5a15.56 15.56 0 017.82 4.5 20.58 20.58 0 013 4c0 .16-5.4 3.81-8.69 5.85-.12.08-.6-.44-1.13-1.23a7.09 7.09 0 00-5.87-3.53c-3.79-.26-6.23 1.73-6.21 5a4.58 4.58 0 00.54 2.34c.83 1.73 2.38 2.76 7.24 4.86 8.95 3.85 12.78 6.39 15.16 10 2.66 4 3.25 10.46 1.45 15.24-2 5.2-6.9 8.73-13.83 9.9a38.32 38.32 0 01-9.52-.1 23 23 0 01-12.72-6.63c-1.15-1.27-3.39-4.58-3.25-4.82a9.34 9.34 0 011.15-.73L82 101l3.59-2.08.75 1.11a16.78 16.78 0 004.74 4.54c4 2.1 9.46 1.81 12.16-.62a5.43 5.43 0 00.69-6.92c-1-1.39-3-2.56-8.59-5-6.45-2.78-9.23-4.5-11.77-7.24a16.48 16.48 0 01-3.43-6.25 25 25 0 01-.22-8c1.33-6.23 6-10.58 12.82-11.87a31.66 31.66 0 019.49.26zm-29.34 5.24v5.12H56.66v46.23H45.15V69.26H28.88v-5a49.19 49.19 0 01.12-5.17C29.08 59 39 59 51 59h21.83z"></path>
  </symbol>

  <symbol id="sql" viewBox="0 0 128 128">
    <path fill="#d1d1d1" d="M51.395 24.879c-27.422 0-49.649-3.832-49.649-8.535v92.261c0 4.727 22.227 8.536 49.649 8.536 27.421 0 49.648-3.832 49.648-8.536V16.29c0 4.758-22.227 8.59-49.648 8.59Zm0 0"></path><path fill="#adadad" d="M1.746 16.29v92.315c0 4.727 22.227 8.536 49.649 8.536V24.879c-27.422 0-49.649-3.832-49.649-8.59Zm92.317 4.405v92.262c4.425-1.277 6.98-2.777 6.98-4.375V16.289c0 1.633-2.547 3.106-6.98 4.406Zm0 0"></path><path fill="#939699" d="M101.043 16.313c0-4.723-22.23-8.555-49.648-8.555-27.422 0-49.649 3.832-49.649 8.555 0 4.726 22.227 8.558 49.649 8.558 27.417 0 49.648-3.832 49.648-8.558ZM1.746 74.332c0 4.727 22.227 8.535 49.649 8.535 27.421 0 49.648-3.832 49.648-8.535v6.984c0 4.723-22.227 8.532-49.648 8.532-27.422 0-49.649-3.832-49.649-8.532Zm0-30.75c0 4.723 22.227 8.535 49.649 8.535 27.421 0 49.648-3.836 49.648-8.535v6.98c0 4.727-22.227 8.536-49.648 8.536-27.422 0-49.649-3.832-49.649-8.535Zm0 0"></path><path fill="#ecedf0" d="M126.64 93.09c0 16.281-13.195 29.48-29.476 29.48s-29.48-13.199-29.48-29.48 13.199-29.477 29.48-29.477 29.477 13.196 29.477 29.477Zm0 0"></path><path fill="#3faa00" d="M123.004 93.09c0 14.273-11.57 25.84-25.84 25.84-14.273 0-25.84-11.567-25.84-25.84 0-14.27 11.567-25.84 25.84-25.84 14.27 0 25.84 11.57 25.84 25.84Zm0 0"></path><path fill="#fff" d="m88.063 105.906 24.027-13.87-24.028-13.872Zm0 0"></path>
  </symbol>

  <symbol id="python" viewBox="16 16 32 32">
    <path d="M31.885 16c-8.124 0-7.617 3.523-7.617 3.523l.01 3.65h7.752v1.095H21.197S16 23.678 16 31.876c0 8.196 4.537 7.906 4.537 7.906h2.708v-3.804s-.146-4.537 4.465-4.537h7.688s4.32.07 4.32-4.175v-7.019S40.374 16 31.885 16zm-4.275 2.454c.771 0 1.395.624 1.395 1.395s-.624 1.395-1.395 1.395a1.393 1.393 0 0 1-1.395-1.395c0-.771.624-1.395 1.395-1.395z" fill="#4584b6"/>
    <path d="M32.115 47.833c8.124 0 7.617-3.523 7.617-3.523l-.01-3.65H31.97v-1.095h10.832S48 40.155 48 31.958c0-8.197-4.537-7.906-4.537-7.906h-2.708v3.803s.146 4.537-4.465 4.537h-7.688s-4.32-.07-4.32 4.175v7.019s-.656 4.247 7.833 4.247zm4.275-2.454a1.393 1.393 0 0 1-1.395-1.395c0-.77.624-1.394 1.395-1.394s1.395.623 1.395 1.394c0 .772-.624 1.395-1.395 1.395z" fill="#ffde57"/>
  </symbol>

  <symbol id="html" viewBox="0 0 128 128">
    <path fill="#E44D26" d="M19.037 113.876L9.032 1.661h109.936l-10.016 112.198-45.019 12.48z"></path><path fill="#F16529" d="M64 116.8l36.378-10.086 8.559-95.878H64z"></path><path fill="#EBEBEB" d="M64 52.455H45.788L44.53 38.361H64V24.599H29.489l.33 3.692 3.382 37.927H64zm0 35.743l-.061.017-15.327-4.14-.979-10.975H33.816l1.928 21.609 28.193 7.826.063-.017z"></path><path fill="#fff" d="M63.952 52.455v13.763h16.947l-1.597 17.849-15.35 4.143v14.319l28.215-7.82.207-2.325 3.234-36.233.335-3.696h-3.708zm0-27.856v13.762h33.244l.276-3.092.628-6.978.329-3.692z"></path>
  </symbol>

  <symbol id="css" viewBox="0 0 128 128">
    <path fill="#1572B6" d="M18.814 114.123L8.76 1.352h110.48l-10.064 112.754-45.243 12.543-45.119-12.526z"></path><path fill="#33A9DC" d="M64.001 117.062l36.559-10.136 8.601-96.354h-45.16v106.49z"></path><path fill="#fff" d="M64.001 51.429h18.302l1.264-14.163H64.001V23.435h34.682l-.332 3.711-3.4 38.114h-30.95V51.429z"></path><path fill="#EBEBEB" d="M64.083 87.349l-.061.018-15.403-4.159-.985-11.031H33.752l1.937 21.717 28.331 7.863.063-.018v-14.39z"></path><path fill="#fff" d="M81.127 64.675l-1.666 18.522-15.426 4.164v14.39l28.354-7.858.208-2.337 2.406-26.881H81.127z"></path><path fill="#EBEBEB" d="M64.048 23.435v13.831H30.64l-.277-3.108-.63-7.012-.331-3.711h34.646zm-.047 27.996v13.831H48.792l-.277-3.108-.631-7.012-.33-3.711h16.447z"></path>
  </symbol>

  <symbol id="c++" viewBox="0 0 128 128">
    <path fill="#00599c" d="M118.766 95.82c.89-1.543 1.441-3.28 1.441-4.843V36.78c0-1.558-.55-3.297-1.441-4.84l-55.32 31.94Zm0 0"></path><path fill="#004482" d="m68.36 126.586 46.933-27.094c1.352-.781 2.582-2.129 3.473-3.672l-55.32-31.94L8.12 95.82c.89 1.543 2.121 2.89 3.473 3.672l46.933 27.094c2.703 1.562 7.13 1.562 9.832 0Zm0 0"></path><path fill="#659ad2" d="M118.766 31.941c-.891-1.546-2.121-2.894-3.473-3.671L68.359 1.172c-2.703-1.563-7.129-1.563-9.832 0L11.594 28.27C8.89 29.828 6.68 33.66 6.68 36.78v54.196c0 1.562.55 3.3 1.441 4.843L63.445 63.88Zm0 0"></path><path fill="#fff" d="M63.445 26.035c-20.867 0-37.843 16.977-37.843 37.844s16.976 37.844 37.843 37.844c13.465 0 26.024-7.247 32.77-18.91L79.84 73.335c-3.38 5.84-9.66 9.465-16.395 9.465-10.433 0-18.922-8.488-18.922-18.922 0-10.434 8.49-18.922 18.922-18.922 6.73 0 13.017 3.629 16.39 9.465l16.38-9.477c-6.75-11.664-19.305-18.91-32.77-18.91zM92.88 57.57v4.207h-4.207v4.203h4.207v4.207h4.203V65.98h4.203v-4.203h-4.203V57.57H92.88zm15.766 0v4.207h-4.204v4.203h4.204v4.207h4.207V65.98h4.203v-4.203h-4.203V57.57h-4.207z"></path>
  </symbol>

  <symbol id="c" viewBox="0 0 128 128">
    <path fill="#659AD3" d="M115.4 30.7L67.1 2.9c-.8-.5-1.9-.7-3.1-.7-1.2 0-2.3.3-3.1.7l-48 27.9c-1.7 1-2.9 3.5-2.9 5.4v55.7c0 1.1.2 2.4 1 3.5l106.8-62c-.6-1.2-1.5-2.1-2.4-2.7z"></path><path fill="#03599C" d="M10.7 95.3c.5.8 1.2 1.5 1.9 1.9l48.2 27.9c.8.5 1.9.7 3.1.7 1.2 0 2.3-.3 3.1-.7l48-27.9c1.7-1 2.9-3.5 2.9-5.4V36.1c0-.9-.1-1.9-.6-2.8l-106.6 62z"></path><path fill="#fff" d="M85.3 76.1C81.1 83.5 73.1 88.5 64 88.5c-13.5 0-24.5-11-24.5-24.5s11-24.5 24.5-24.5c9.1 0 17.1 5 21.3 12.5l13-7.5c-6.8-11.9-19.6-20-34.3-20-21.8 0-39.5 17.7-39.5 39.5s17.7 39.5 39.5 39.5c14.6 0 27.4-8 34.2-19.8l-12.9-7.6z"></path>
  </symbol>

  <symbol id="java" viewBox="0 0 128 128">
    <path fill="#0074BD" d="M47.617 98.12s-4.767 2.774 3.397 3.71c9.892 1.13 14.947.968 25.845-1.092 0 0 2.871 1.795 6.873 3.351-24.439 10.47-55.308-.607-36.115-5.969zm-2.988-13.665s-5.348 3.959 2.823 4.805c10.567 1.091 18.91 1.18 33.354-1.6 0 0 1.993 2.025 5.132 3.131-29.542 8.64-62.446.68-41.309-6.336z"></path><path fill="#EA2D2E" d="M69.802 61.271c6.025 6.935-1.58 13.17-1.58 13.17s15.289-7.891 8.269-17.777c-6.559-9.215-11.587-13.792 15.635-29.58 0 .001-42.731 10.67-22.324 34.187z"></path><path fill="#0074BD" d="M102.123 108.229s3.529 2.91-3.888 5.159c-14.102 4.272-58.706 5.56-71.094.171-4.451-1.938 3.899-4.625 6.526-5.192 2.739-.593 4.303-.485 4.303-.485-4.953-3.487-32.013 6.85-13.743 9.815 49.821 8.076 90.817-3.637 77.896-9.468zM49.912 70.294s-22.686 5.389-8.033 7.348c6.188.828 18.518.638 30.011-.326 9.39-.789 18.813-2.474 18.813-2.474s-3.308 1.419-5.704 3.053c-23.042 6.061-67.544 3.238-54.731-2.958 10.832-5.239 19.644-4.643 19.644-4.643zm40.697 22.747c23.421-12.167 12.591-23.86 5.032-22.285-1.848.385-2.677.72-2.677.72s.688-1.079 2-1.543c14.953-5.255 26.451 15.503-4.823 23.725 0-.002.359-.327.468-.617z"></path><path fill="#EA2D2E" d="M76.491 1.587S89.459 14.563 64.188 34.51c-20.266 16.006-4.621 25.13-.007 35.559-11.831-10.673-20.509-20.07-14.688-28.815C58.041 28.42 81.722 22.195 76.491 1.587z"></path><path fill="#0074BD" d="M52.214 126.021c22.476 1.437 57-.8 57.817-11.436 0 0-1.571 4.032-18.577 7.231-19.186 3.612-42.854 3.191-56.887.874 0 .001 2.875 2.381 17.647 3.331z"></path>
  </symbol>

  <symbol id="scala" viewBox="0 0 128 128">
    <path d="M25 110.437V94.874h5.616c3.113 0 8.052-.203 11.03-.474l5.278-.406-7.038-1.894c-3.924-1.015-8.864-2.504-10.961-3.316L25 87.364V55.627h6.293c3.383 0 8.323-.203 10.894-.473l4.737-.406-8.323-2.233C34 51.366 29.128 49.809 27.639 49.2L25 47.982v-30.72l2.098-.473c1.15-.203 3.992-.406 6.293-.406 11.367 0 38.366-3.722 51.628-7.105 9.27-2.436 15.698-4.872 17.931-6.902 1.15-1.015 1.218-.406 1.218 14.548v15.63l-1.624 1.219-1.624 1.285 3.248 2.842v33.9l-1.624 1.218-1.624 1.286 3.248 2.842v33.9l-1.76 1.353c-1.894 1.489-9.202 3.993-17.524 6.09C71.892 121.737 40.157 126 29.33 126H25z" fill="#390d09"></path><g fill="#de3423"><path d="M25 110.572V95.077l11.842-.474c12.315-.473 21.45-1.488 34.847-3.789 15.225-2.639 30.246-7.375 31.803-10.082.406-.677.676 4.534.676 14.616v15.698l-1.76 1.353c-1.894 1.489-9.202 3.993-17.524 6.09C71.892 121.737 40.157 126 29.33 126H25zM25 71.327V55.83l11.842-.406c13.127-.541 23.344-1.691 36.877-4.195 15.157-2.842 28.96-7.443 29.976-9.947.203-.473.406 6.09.406 14.616.067 13.533-.068 15.698-1.083 16.78-2.368 2.64-20.638 7.376-39.449 10.286-11.435 1.76-30.381 3.79-35.66 3.79H25zM25 32.352V17.195l2.098-.406c1.15-.203 3.992-.406 6.293-.406 11.367 0 38.366-3.722 51.628-7.105 9.27-2.436 15.698-4.872 17.931-6.902 1.15-1.015 1.218-.406 1.218 14.48 0 14.548-.067 15.63-1.285 16.714-1.827 1.691-14.345 5.548-24.09 7.51-15.765 3.113-41.951 6.429-50.883 6.429H25z"></path></g>
  </symbol>
          
  <symbol id="react" viewBox="0 0 128 128">
    <g fill="#61DAFB"><circle cx="64" cy="64" r="11.4"></circle><path d="M107.3 45.2c-2.2-.8-4.5-1.6-6.9-2.3.6-2.4 1.1-4.8 1.5-7.1 2.1-13.2-.2-22.5-6.6-26.1-1.9-1.1-4-1.6-6.4-1.6-7 0-15.9 5.2-24.9 13.9-9-8.7-17.9-13.9-24.9-13.9-2.4 0-4.5.5-6.4 1.6-6.4 3.7-8.7 13-6.6 26.1.4 2.3.9 4.7 1.5 7.1-2.4.7-4.7 1.4-6.9 2.3C8.2 50 1.4 56.6 1.4 64s6.9 14 19.3 18.8c2.2.8 4.5 1.6 6.9 2.3-.6 2.4-1.1 4.8-1.5 7.1-2.1 13.2.2 22.5 6.6 26.1 1.9 1.1 4 1.6 6.4 1.6 7.1 0 16-5.2 24.9-13.9 9 8.7 17.9 13.9 24.9 13.9 2.4 0 4.5-.5 6.4-1.6 6.4-3.7 8.7-13 6.6-26.1-.4-2.3-.9-4.7-1.5-7.1 2.4-.7 4.7-1.4 6.9-2.3 12.5-4.8 19.3-11.4 19.3-18.8s-6.8-14-19.3-18.8zM92.5 14.7c4.1 2.4 5.5 9.8 3.8 20.3-.3 2.1-.8 4.3-1.4 6.6-5.2-1.2-10.7-2-16.5-2.5-3.4-4.8-6.9-9.1-10.4-13 7.4-7.3 14.9-12.3 21-12.3 1.3 0 2.5.3 3.5.9zM81.3 74c-1.8 3.2-3.9 6.4-6.1 9.6-3.7.3-7.4.4-11.2.4-3.9 0-7.6-.1-11.2-.4-2.2-3.2-4.2-6.4-6-9.6-1.9-3.3-3.7-6.7-5.3-10 1.6-3.3 3.4-6.7 5.3-10 1.8-3.2 3.9-6.4 6.1-9.6 3.7-.3 7.4-.4 11.2-.4 3.9 0 7.6.1 11.2.4 2.2 3.2 4.2 6.4 6 9.6 1.9 3.3 3.7 6.7 5.3 10-1.7 3.3-3.4 6.6-5.3 10zm8.3-3.3c1.5 3.5 2.7 6.9 3.8 10.3-3.4.8-7 1.4-10.8 1.9 1.2-1.9 2.5-3.9 3.6-6 1.2-2.1 2.3-4.2 3.4-6.2zM64 97.8c-2.4-2.6-4.7-5.4-6.9-8.3 2.3.1 4.6.2 6.9.2 2.3 0 4.6-.1 6.9-.2-2.2 2.9-4.5 5.7-6.9 8.3zm-18.6-15c-3.8-.5-7.4-1.1-10.8-1.9 1.1-3.3 2.3-6.8 3.8-10.3 1.1 2 2.2 4.1 3.4 6.1 1.2 2.2 2.4 4.1 3.6 6.1zm-7-25.5c-1.5-3.5-2.7-6.9-3.8-10.3 3.4-.8 7-1.4 10.8-1.9-1.2 1.9-2.5 3.9-3.6 6-1.2 2.1-2.3 4.2-3.4 6.2zM64 30.2c2.4 2.6 4.7 5.4 6.9 8.3-2.3-.1-4.6-.2-6.9-.2-2.3 0-4.6.1-6.9.2 2.2-2.9 4.5-5.7 6.9-8.3zm22.2 21l-3.6-6c3.8.5 7.4 1.1 10.8 1.9-1.1 3.3-2.3 6.8-3.8 10.3-1.1-2.1-2.2-4.2-3.4-6.2zM31.7 35c-1.7-10.5-.3-17.9 3.8-20.3 1-.6 2.2-.9 3.5-.9 6 0 13.5 4.9 21 12.3-3.5 3.8-7 8.2-10.4 13-5.8.5-11.3 1.4-16.5 2.5-.6-2.3-1-4.5-1.4-6.6zM7 64c0-4.7 5.7-9.7 15.7-13.4 2-.8 4.2-1.5 6.4-2.1 1.6 5 3.6 10.3 6 15.6-2.4 5.3-4.5 10.5-6 15.5C15.3 75.6 7 69.6 7 64zm28.5 49.3c-4.1-2.4-5.5-9.8-3.8-20.3.3-2.1.8-4.3 1.4-6.6 5.2 1.2 10.7 2 16.5 2.5 3.4 4.8 6.9 9.1 10.4 13-7.4 7.3-14.9 12.3-21 12.3-1.3 0-2.5-.3-3.5-.9zM96.3 93c1.7 10.5.3 17.9-3.8 20.3-1 .6-2.2.9-3.5.9-6 0-13.5-4.9-21-12.3 3.5-3.8 7-8.2 10.4-13 5.8-.5 11.3-1.4 16.5-2.5.6 2.3 1 4.5 1.4 6.6zm9-15.6c-2 .8-4.2 1.5-6.4 2.1-1.6-5-3.6-10.3-6-15.6 2.4-5.3 4.5-10.5 6-15.5 13.8 4 22.1 10 22.1 15.6 0 4.7-5.8 9.7-15.7 13.4z"></path></g>
  </symbol>

  <symbol id="firebase" viewBox="0 0 128 128">
    <path fill="#ffa000" d="M17.474 103.276 33.229 2.462a2.91 2.91 0 0 1 5.44-.924l16.294 30.39 6.494-12.366a2.91 2.91 0 0 1 5.15 0l43.97 83.714H17.474Z"></path><path fill="#f57c00" d="M71.903 64.005 54.955 31.913l-37.481 71.363Z"></path><path fill="#ffca28" d="M110.577 103.276 98.51 28.604a2.913 2.913 0 0 0-1.984-2.286 2.906 2.906 0 0 0-2.94.714l-76.112 76.243 42.115 23.618a8.728 8.728 0 0 0 8.51 0l42.478-23.618Z"></path><path fill="#fff" fill-opacity=".2" d="M98.51 28.604a2.913 2.913 0 0 0-1.984-2.286 2.906 2.906 0 0 0-2.94.713L78.479 42.178 66.6 19.562a2.91 2.91 0 0 0-5.15 0l-6.494 12.365L38.662 1.538A2.91 2.91 0 0 0 35.605.044a2.907 2.907 0 0 0-2.384 2.425L17.474 103.276h-.051l.05.058.415.204 75.676-75.764a2.91 2.91 0 0 1 4.932 1.571l11.965 74.003.116-.073L98.51 28.603Zm-80.898 74.534L33.228 3.182A2.91 2.91 0 0 1 35.613.756a2.911 2.911 0 0 1 3.057 1.495l16.292 30.39 6.495-12.366a2.91 2.91 0 0 1 5.15 0L78.245 42.41 17.61 103.138Z"></path><path fill="#a52714" d="M68.099 126.18a8.728 8.728 0 0 1-8.51 0l-42.015-23.55-.102.647 42.115 23.61a8.728 8.728 0 0 0 8.51 0l42.48-23.61-.11-.67-42.37 23.575z" opacity=".2"></path>
  </symbol>

  <symbol id="tailwind" viewBox="0 0 128 128">
    <path d="M64.004 25.602c-17.067 0-27.73 8.53-32 25.597 6.398-8.531 13.867-11.73 22.398-9.597 4.871 1.214 8.352 4.746 12.207 8.66C72.883 56.629 80.145 64 96.004 64c17.066 0 27.73-8.531 32-25.602-6.399 8.536-13.867 11.735-22.399 9.602-4.87-1.215-8.347-4.746-12.207-8.66-6.27-6.367-13.53-13.738-29.394-13.738zM32.004 64c-17.066 0-27.73 8.531-32 25.602C6.402 81.066 13.87 77.867 22.402 80c4.871 1.215 8.352 4.746 12.207 8.66 6.274 6.367 13.536 13.738 29.395 13.738 17.066 0 27.73-8.53 32-25.597-6.399 8.531-13.867 11.73-22.399 9.597-4.87-1.214-8.347-4.746-12.207-8.66C55.128 71.371 47.868 64 32.004 64zm0 0" fill="#38bdf8"></path>
  </symbol>

  <symbol id="jest" viewBox="0 0 128 128">
    <path fill="#99425B" d="M124.129 63.02c0-7.692-5.828-14.165-13.652-16.012L128 .113H41.16l17.563 47.043c-7.578 1.996-13.164 8.356-13.164 15.903 0 5.546 3.058 10.464 7.703 13.496-1.832 2.367-3.953 4.55-6.356 6.62-4.523 3.848-9.539 6.805-14.957 8.766-4.89-2.996-7.008-8.285-5.094-13.02 7.457-2.07 12.88-8.394 12.88-15.827 0-9.133-8.192-16.532-18.22-16.532-10.066 0-18.253 7.434-18.253 16.57 0 4.513 2.035 8.653 5.297 11.61-.286.52-.57 1.035-.856 1.59C4.973 81.438 1.875 87.207.691 93.68c-2.363 12.941 1.508 23.336 10.84 29.215 5.258 3.293 11.047 4.957 17.282 4.957 10.714 0 21.597-4.883 32.109-9.618 7.5-3.363 15.242-6.879 22.863-8.578 2.813-.629 5.746-1 8.844-1.406 6.273-.813 12.754-1.664 18.582-4.734 6.805-3.586 11.45-9.579 12.797-16.457 1.015-5.29 0-10.614-2.61-15.274a15.35 15.35 0 002.73-8.765zm-7.945 0c0 5.14-4.606 9.32-10.27 9.32s-10.27-4.18-10.27-9.32c0-1.665.489-3.254 1.344-4.622.325-.52.735-1.035 1.14-1.48a8.517 8.517 0 011.427-1.219l.043-.039c.324-.222.691-.445 1.058-.664 0 0 .04 0 .04-.039.163-.074.327-.184.492-.258.039 0 .078-.039.12-.039.165-.07.368-.144.57-.219a8.78 8.78 0 00.571-.222c.04 0 .082-.04.121-.04.164-.034.328-.109.489-.144.043 0 .125-.039.164-.039.203-.035.367-.074.57-.11h.043l.61-.113c.042 0 .12 0 .163-.035.164 0 .325-.039.489-.039h.203c.203 0 .41-.035.652-.035h.531c.16 0 .286 0 .446.035h.082c.328.04.652.074.98.149 4.645.886 8.192 4.66 8.192 9.172zM52.527 7.508h64.102l-14.711 39.387c-.61.113-1.223.296-1.832.48l-15.484-28.66L69.074 47.19c-.613-.183-1.265-.296-1.914-.406zM81.664 59.8c-.773-3.477-2.73-6.582-5.5-8.875l8.438-15.457 8.515 15.789c-2.527 2.293-4.36 5.215-5.094 8.543zM61.25 53.96c.203-.04.367-.074.57-.113h.121c.164-.035.329-.035.489-.075h.164c.164 0 .285-.035.449-.035h1.59c.16 0 .285.035.406.035.082 0 .121 0 .203.04.164.035.285.035.45.074.038 0 .081 0 .163.035.204.039.407.074.57.113h.04c.164.035.328.07.488.145.043 0 .082.039.164.039.121.035.285.074.406.148.043 0 .082.035.125.035.16.075.325.114.489.188h.039c.203.07.367.144.531.258h.04c.163.074.327.183.491.257.04 0 .04.04.078.04.164.07.286.183.45.257l.043.035c.488.333.937.704 1.382 1.075l.043.035c.407.406.813.851 1.141 1.332 1.059 1.48 1.672 3.219 1.672 5.105 0 5.141-4.606 9.317-10.27 9.317s-10.27-4.176-10.27-9.317c-.042-4.328 3.259-7.988 7.743-9.023zm-40.102-.262c5.665 0 10.27 4.18 10.27 9.32 0 5.141-4.605 9.32-10.27 9.32-5.664 0-10.27-4.179-10.27-9.32 0-5.14 4.606-9.32 10.27-9.32zm94.79 32.067c-.895 4.73-4.118 8.875-8.844 11.351-4.442 2.332-9.903 3.07-15.649 3.809-3.136.406-6.437.851-9.617 1.554-8.476 1.887-16.625 5.586-24.531 9.133-10.106 4.551-19.645 8.84-28.484 8.84-4.606 0-8.723-1.183-12.633-3.66-8.965-5.621-8.52-16.16-7.457-21.93.976-5.402 3.707-10.468 6.316-15.312.16-.297.285-.555.445-.852.899.297 1.836.52 2.813.668-1.547 7.84 2.851 15.938 11.41 19.934l1.55.738 1.669-.555c7.133-2.293 13.734-6.027 19.562-11.02 3.301-2.812 6.114-5.843 8.477-9.136.937.149 1.875.188 2.812.188 8.477 0 15.606-5.29 17.645-12.391h6.844c2.039 7.137 9.171 12.39 17.648 12.39 3.383 0 6.52-.85 9.207-2.292 1.063 2.773 1.387 5.656.817 8.543zm0 0"></path>
  </symbol>
          
  <symbol id="sveltekit" viewBox="0 0 128 128">
    <path d="M 110.43093,16.935847 C 98.552474,-0.076153 75.089104,-5.118154 58.130818,5.695846 l -29.793,19.000001 c -4.030441,2.529 -7.488786,5.871 -10.15468,9.814 -2.665895,3.943 -4.479469,8.399 -5.325138,13.083 a 25.478172,30.64 0 0 0 -0.572094,6.396 c 0.0183,5.831 1.446866,11.571 4.163485,16.729995 -2.546986,3.87201 -4.285721,8.22 -5.110602,12.78201 a 25.347621,30.483 0 0 0 0.345086,14.41199 c 1.072679,4.732998 3.078336,9.203998 5.900559,13.151998 11.877618,17.011 35.393374,22.053 52.299272,11.24 l 29.762238,-19.001 c 4.027946,-2.532 7.482126,-5.877998 10.141386,-9.824998 2.65841,-3.947 4.46282,-8.40699 5.29686,-13.093 0.3825,-2.107 0.57458,-4.244 0.5721,-6.386 -0.007,-5.81999 -1.41778,-11.550995 -4.11194,-16.708995 2.54616,-3.869 4.28489,-8.213 5.11143,-12.771 0.36921,-2.109 0.55713,-4.245 0.56212,-6.386 0.002,-7.595 -2.37152,-15 -6.78697,-21.178 z" fill="#ff3e00" id="path598" style="stroke-width:0.911885"></path><path d="m 55.218941,112.66204 a 28.463375,34.23 0 0 1 -5.953776,0.76 c -3.820895,0.001 -7.585244,-0.925 -10.970416,-2.7 -3.384341,-1.774 -6.288887,-4.343 -8.464177,-7.487 -2.655917,-3.716 -4.082827,-8.171 -4.080332,-12.74 a 15.657767,18.83 0 0 1 0.332613,-3.833 15.424937,18.55 0 0 1 0.719276,-2.782 l 0.562116,-1.708 1.51921,1.156 c 3.528195,2.591 7.470493,4.564 11.658097,5.834 l 1.104275,0.333 -0.103941,1.104 v 0.573 c -0.0025,1.381 0.427408,2.73 1.228174,3.854 0.646933,0.958 1.51838,1.744 2.537839,2.288 a 8.2621121,9.936 0 0 0 3.311997,0.837 8.2513022,9.923 0 0 0 1.79029,-0.229 7.2717563,8.745 0 0 0 1.832699,-0.802 l 29.760566,-19.094 c 0.892236,-0.566 1.627311,-1.349 2.135377,-2.276 0.507236,-0.927 0.771662,-1.968 0.768337,-3.026 -0.0084,-1.381 -0.449027,-2.725 -1.259773,-3.844 -0.656912,-0.946 -1.533347,-1.718 -2.553637,-2.252 a 8.3128357,9.997 0 0 0 -3.307008,-0.81 8.246313,9.917 0 0 0 -1.79029,0.23 6.9383115,8.344 0 0 0 -1.821058,0.801 l -11.346268,7.25 a 24.375558,29.314 0 0 1 -6.04774,2.656 c -1.945787,0.502 -3.945624,0.758 -5.954608,0.76 -3.820063,0 -7.582749,-0.926 -10.967089,-2.698 -3.384341,-1.772 -6.289718,-4.338 -8.467502,-7.478 -2.652591,-3.718 -4.079502,-8.172 -4.080334,-12.74 0.0016,-1.285 0.113089,-2.567 0.332615,-3.833 0.509728,-2.816 1.597374,-5.495 3.196411,-7.867 1.598207,-2.373 3.67205,-4.387 6.089317,-5.914 l 29.792168,-18.99 c 1.869286,-1.19 3.908205,-2.09 6.04774,-2.667 1.945787,-0.499 3.945625,-0.75 5.953776,-0.75 3.82921,-0.01 7.603538,0.91 10.999519,2.681 3.395981,1.77 6.311338,4.34 8.497439,7.486 2.636787,3.727 4.045417,8.184 4.028777,12.75 a 15.748404,18.939 0 0 1 -0.33344,3.844 15.407475,18.529 0 0 1 -0.71845,2.781 l -0.56211,1.708 -1.519216,-1.114 c -3.525699,-2.595 -7.468833,-4.568 -11.658096,-5.834 l -1.104275,-0.343 0.103941,-1.105 v -0.572 c 0,-1.385 -0.429072,-2.735 -1.228174,-3.865 -0.65608,-0.945 -1.530022,-1.716 -2.549481,-2.25 a 8.3086779,9.992 0 0 0 -3.301186,-0.813 8.2213671,9.887 0 0 0 -1.768671,0.271 6.8185708,8.2 0 0 0 -1.831867,0.802 l -29.792165,18.99 a 5.8797701,7.071 0 0 0 -1.836857,1.79 4.7505482,5.713 0 0 0 -0.962914,2.377 5.0365955,6.057 0 0 0 -0.135541,1.104 c -8.31e-4,1.378 0.42824,2.722 1.228174,3.844 0.655248,0.945 1.530021,1.717 2.548649,2.25 a 8.2986996,9.98 0 0 0 3.301186,0.812 8.2471446,9.918 0 0 0 1.79029,-0.23 6.9433007,8.35 0 0 0 1.832699,-0.801 l 11.367057,-7.292 a 24.218399,29.125 0 0 1 6.04774,-2.656 28.52574,34.305 0 0 1 5.953776,-0.76 c 3.821727,0 7.586076,0.925 10.972078,2.697 3.386003,1.772 6.293877,4.339 8.473325,7.48 2.652591,3.717 4.079498,8.171 4.080338,12.74 0.003,1.299 -0.11226,2.596 -0.34343,3.874 -0.506403,2.817 -1.594046,5.497 -3.192254,7.87 -1.599037,2.372 -3.673715,4.385 -6.093476,5.911 l -29.739779,18.99 a 24.308205,29.233 0 0 1 -6.057719,2.667 z" fill="#ffffff" id="path600" style="stroke-width:0.911885"></path>
  </symbol>

  <symbol id="express" viewBox="0 0 128 128">
    <path fill="white" d="M126.67 98.44c-4.56 1.16-7.38.05-9.91-3.75-5.68-8.51-11.95-16.63-18-24.9-.78-1.07-1.59-2.12-2.6-3.45C89 76 81.85 85.2 75.14 94.77c-2.4 3.42-4.92 4.91-9.4 3.7l26.92-36.13L67.6 29.71c4.31-.84 7.29-.41 9.93 3.45 5.83 8.52 12.26 16.63 18.67 25.21 6.45-8.55 12.8-16.67 18.8-25.11 2.41-3.42 5-4.72 9.33-3.46-3.28 4.35-6.49 8.63-9.72 12.88-4.36 5.73-8.64 11.53-13.16 17.14-1.61 2-1.35 3.3.09 5.19C109.9 76 118.16 87.1 126.67 98.44zM1.33 61.74c.72-3.61 1.2-7.29 2.2-10.83 6-21.43 30.6-30.34 47.5-17.06C60.93 41.64 63.39 52.62 62.9 65H7.1c-.84 22.21 15.15 35.62 35.53 28.78 7.15-2.4 11.36-8 13.47-15 1.07-3.51 2.84-4.06 6.14-3.06-1.69 8.76-5.52 16.08-13.52 20.66-12 6.86-29.13 4.64-38.14-4.89C5.26 85.89 3 78.92 2 71.39c-.15-1.2-.46-2.38-.7-3.57q.03-3.04.03-6.08zm5.87-1.49h50.43c-.33-16.06-10.33-27.47-24-27.57-15-.12-25.78 11.02-26.43 27.57z"></path>
  </symbol>

  <symbol id="postgres" viewBox="0 0 128 128">
    <path d="M93.809 92.112c.785-6.533.55-7.492 5.416-6.433l1.235.108c3.742.17 8.637-.602 11.513-1.938 6.191-2.873 9.861-7.668 3.758-6.409-13.924 2.873-14.881-1.842-14.881-1.842 14.703-21.815 20.849-49.508 15.543-56.287-14.47-18.489-39.517-9.746-39.936-9.52l-.134.025c-2.751-.571-5.83-.912-9.289-.968-6.301-.104-11.082 1.652-14.709 4.402 0 0-44.683-18.409-42.604 23.151.442 8.841 12.672 66.898 27.26 49.362 5.332-6.412 10.484-11.834 10.484-11.834 2.558 1.699 5.622 2.567 8.834 2.255l.249-.212c-.078.796-.044 1.575.099 2.497-3.757 4.199-2.653 4.936-10.166 6.482-7.602 1.566-3.136 4.355-.221 5.084 3.535.884 11.712 2.136 17.238-5.598l-.22.882c1.474 1.18 1.375 8.477 1.583 13.69.209 5.214.558 10.079 1.621 12.948 1.063 2.868 2.317 10.256 12.191 8.14 8.252-1.764 14.561-4.309 15.136-27.985"></path><path d="M75.458 125.256c-4.367 0-7.211-1.689-8.938-3.32-2.607-2.46-3.641-5.629-4.259-7.522l-.267-.79c-1.244-3.358-1.666-8.193-1.916-14.419-.038-.935-.064-1.898-.093-2.919-.021-.747-.047-1.684-.085-2.664a18.8 18.8 0 01-4.962 1.568c-3.079.526-6.389.356-9.84-.507-2.435-.609-4.965-1.871-6.407-3.82-4.203 3.681-8.212 3.182-10.396 2.453-3.853-1.285-7.301-4.896-10.542-11.037-2.309-4.375-4.542-10.075-6.638-16.943-3.65-11.96-5.969-24.557-6.175-28.693C4.292 23.698 7.777 14.44 15.296 9.129 27.157.751 45.128 5.678 51.68 7.915c4.402-2.653 9.581-3.944 15.433-3.851 3.143.051 6.136.327 8.916.823 2.9-.912 8.628-2.221 15.185-2.139 12.081.144 22.092 4.852 28.949 13.615 4.894 6.252 2.474 19.381.597 26.651-2.642 10.226-7.271 21.102-12.957 30.57 1.544.011 3.781-.174 6.961-.831 6.274-1.295 8.109 2.069 8.607 3.575 1.995 6.042-6.677 10.608-9.382 11.864-3.466 1.609-9.117 2.589-13.745 2.377l-.202-.013-1.216-.107-.12 1.014-.116.991c-.311 11.999-2.025 19.598-5.552 24.619-3.697 5.264-8.835 6.739-13.361 7.709-1.544.33-2.947.474-4.219.474zm-9.19-43.671c2.819 2.256 3.066 6.501 3.287 14.434.028.99.054 1.927.089 2.802.106 2.65.355 8.855 1.327 11.477.137.371.26.747.39 1.146 1.083 3.316 1.626 4.979 6.309 3.978 3.931-.843 5.952-1.599 7.534-3.851 2.299-3.274 3.585-9.86 3.821-19.575l4.783.116-4.75-.57.14-1.186c.455-3.91.783-6.734 3.396-8.602 2.097-1.498 4.486-1.353 6.389-1.01-2.091-1.58-2.669-3.433-2.823-4.193l-.399-1.965 1.121-1.663c6.457-9.58 11.781-21.354 14.609-32.304 2.906-11.251 2.02-17.226 1.134-18.356-11.729-14.987-32.068-8.799-34.192-8.097l-.359.194-1.8.335-.922-.191c-2.542-.528-5.366-.82-8.393-.869-4.756-.08-8.593 1.044-11.739 3.431l-2.183 1.655-2.533-1.043c-5.412-2.213-21.308-6.662-29.696-.721-4.656 3.298-6.777 9.76-6.305 19.207.156 3.119 2.275 14.926 5.771 26.377 4.831 15.825 9.221 21.082 11.054 21.693.32.108 1.15-.537 1.976-1.529a270.708 270.708 0 0110.694-12.07l2.77-2.915 3.349 2.225c1.35.897 2.839 1.406 4.368 1.502l7.987-6.812-1.157 11.808c-.026.265-.039.626.065 1.296l.348 2.238-1.51 1.688-.174.196 4.388 2.025 1.836-2.301z"></path><path fill="#336791" d="M115.731 77.44c-13.925 2.873-14.882-1.842-14.882-1.842 14.703-21.816 20.849-49.51 15.545-56.287C101.924.823 76.875 9.566 76.457 9.793l-.135.024c-2.751-.571-5.83-.911-9.291-.967-6.301-.103-11.08 1.652-14.707 4.402 0 0-44.684-18.408-42.606 23.151.442 8.842 12.672 66.899 27.26 49.363 5.332-6.412 10.483-11.834 10.483-11.834 2.559 1.699 5.622 2.567 8.833 2.255l.25-.212c-.078.796-.042 1.575.1 2.497-3.758 4.199-2.654 4.936-10.167 6.482-7.602 1.566-3.136 4.355-.22 5.084 3.534.884 11.712 2.136 17.237-5.598l-.221.882c1.473 1.18 2.507 7.672 2.334 13.557-.174 5.885-.29 9.926.871 13.082 1.16 3.156 2.316 10.256 12.192 8.14 8.252-1.768 12.528-6.351 13.124-13.995.422-5.435 1.377-4.631 1.438-9.49l.767-2.3c.884-7.367.14-9.743 5.225-8.638l1.235.108c3.742.17 8.639-.602 11.514-1.938 6.19-2.871 9.861-7.667 3.758-6.408z"></path><path fill="#fff" d="M75.957 122.307c-8.232 0-10.84-6.519-11.907-9.185-1.562-3.907-1.899-19.069-1.551-31.503a1.59 1.59 0 011.64-1.55 1.594 1.594 0 011.55 1.639c-.401 14.341.168 27.337 1.324 30.229 1.804 4.509 4.54 8.453 12.275 6.796 7.343-1.575 10.093-4.359 11.318-11.46.94-5.449 2.799-20.951 3.028-24.01a1.593 1.593 0 011.71-1.472 1.597 1.597 0 011.472 1.71c-.239 3.185-2.089 18.657-3.065 24.315-1.446 8.387-5.185 12.191-13.794 14.037-1.463.313-2.792.453-4 .454zM31.321 90.466a6.71 6.71 0 01-2.116-.35c-5.347-1.784-10.44-10.492-15.138-25.885-3.576-11.717-5.842-23.947-6.041-27.922-.589-11.784 2.445-20.121 9.02-24.778 13.007-9.216 34.888-.44 35.813-.062a1.596 1.596 0 01-1.207 2.955c-.211-.086-21.193-8.492-32.768-.285-5.622 3.986-8.203 11.392-7.672 22.011.167 3.349 2.284 15.285 5.906 27.149 4.194 13.742 8.967 22.413 13.096 23.79.648.216 2.62.873 5.439-2.517A245.272 245.272 0 0145.88 73.046a1.596 1.596 0 012.304 2.208c-.048.05-4.847 5.067-10.077 11.359-2.477 2.979-4.851 3.853-6.786 3.853zm69.429-13.445a1.596 1.596 0 01-1.322-2.487c14.863-22.055 20.08-48.704 15.612-54.414-5.624-7.186-13.565-10.939-23.604-11.156-7.433-.16-13.341 1.738-14.307 2.069l-.243.099c-.971.305-1.716-.227-1.997-.849a1.6 1.6 0 01.631-2.025c.046-.027.192-.089.429-.176l-.021.006.021-.007c1.641-.601 7.639-2.4 15.068-2.315 11.108.118 20.284 4.401 26.534 12.388 2.957 3.779 2.964 12.485.019 23.887-3.002 11.625-8.651 24.118-15.497 34.277-.306.457-.81.703-1.323.703zm.76 10.21c-2.538 0-4.813-.358-6.175-1.174-1.4-.839-1.667-1.979-1.702-2.584-.382-6.71 3.32-7.878 5.208-8.411-.263-.398-.637-.866-1.024-1.349-1.101-1.376-2.609-3.26-3.771-6.078-.182-.44-.752-1.463-1.412-2.648-3.579-6.418-11.026-19.773-6.242-26.612 2.214-3.165 6.623-4.411 13.119-3.716C97.6 28.837 88.5 10.625 66.907 10.271c-6.494-.108-11.82 1.889-15.822 5.93-8.96 9.049-8.636 25.422-8.631 25.586a1.595 1.595 0 11-3.19.084c-.02-.727-.354-17.909 9.554-27.916C53.455 9.272 59.559 6.96 66.96 7.081c13.814.227 22.706 7.25 27.732 13.101 5.479 6.377 8.165 13.411 8.386 15.759.165 1.746-1.088 2.095-1.341 2.147l-.576.013c-6.375-1.021-10.465-.312-12.156 2.104-3.639 5.201 3.406 17.834 6.414 23.229.768 1.376 1.322 2.371 1.576 2.985.988 2.396 2.277 4.006 3.312 5.3.911 1.138 1.7 2.125 1.982 3.283.131.23 1.99 2.98 13.021.703 2.765-.57 4.423-.083 4.93 1.45.997 3.015-4.597 6.532-7.694 7.97-2.775 1.29-7.204 2.106-11.036 2.106zm-4.696-4.021c.35.353 2.101.962 5.727.806 3.224-.138 6.624-.839 8.664-1.786 2.609-1.212 4.351-2.567 5.253-3.492l-.5.092c-7.053 1.456-12.042 1.262-14.828-.577a6.162 6.162 0 01-.54-.401c-.302.119-.581.197-.78.253-1.58.443-3.214.902-2.996 5.105zm-45.562 8.915c-1.752 0-3.596-.239-5.479-.71-1.951-.488-5.24-1.957-5.19-4.37.057-2.707 3.994-3.519 5.476-3.824 5.354-1.103 5.703-1.545 7.376-3.67.488-.619 1.095-1.39 1.923-2.314 1.229-1.376 2.572-2.073 3.992-2.073.989 0 1.8.335 2.336.558 1.708.708 3.133 2.42 3.719 4.467.529 1.847.276 3.625-.71 5.006-3.237 4.533-7.886 6.93-13.443 6.93zm-7.222-4.943c.481.372 1.445.869 2.518 1.137 1.631.408 3.213.615 4.705.615 4.546 0 8.196-1.882 10.847-5.594.553-.774.387-1.757.239-2.274-.31-1.083-1.08-2.068-1.873-2.397-.43-.178-.787-.314-1.115-.314-.176 0-.712 0-1.614 1.009a41.146 41.146 0 00-1.794 2.162c-2.084 2.646-3.039 3.544-9.239 4.821-1.513.31-2.289.626-2.674.835zm12.269-7.36a1.596 1.596 0 01-1.575-1.354 8.218 8.218 0 01-.08-.799c-4.064-.076-7.985-1.82-10.962-4.926-3.764-3.927-5.477-9.368-4.699-14.927.845-6.037.529-11.366.359-14.229-.047-.796-.081-1.371-.079-1.769.003-.505.013-1.844 4.489-4.113 1.592-.807 4.784-2.215 8.271-2.576 5.777-.597 9.585 1.976 10.725 7.246 3.077 14.228.244 20.521-1.825 25.117-.385.856-.749 1.664-1.04 2.447l-.257.69c-1.093 2.931-2.038 5.463-1.748 7.354a1.595 1.595 0 01-1.335 1.819l-.244.02zM42.464 42.26l.062 1.139c.176 2.974.504 8.508-.384 14.86-.641 4.585.759 9.06 3.843 12.276 2.437 2.542 5.644 3.945 8.94 3.945h.068c.369-1.555.982-3.197 1.642-4.966l.255-.686c.329-.884.714-1.74 1.122-2.646 1.991-4.424 4.47-9.931 1.615-23.132-.565-2.615-1.936-4.128-4.189-4.627-4.628-1.022-11.525 2.459-12.974 3.837zm9.63-.677c-.08.564 1.033 2.07 2.485 2.271 1.449.203 2.689-.975 2.768-1.539.079-.564-1.033-1.186-2.485-1.388-1.451-.202-2.691.092-2.768.656zm2.818 2.826l-.407-.028c-.9-.125-1.81-.692-2.433-1.518-.219-.29-.576-.852-.505-1.354.101-.736.999-1.177 2.4-1.177.313 0 .639.023.967.069.766.106 1.477.327 2.002.62.91.508.977 1.075.936 1.368-.112.813-1.405 2.02-2.96 2.02zm-2.289-2.732c.045.348.907 1.496 2.029 1.651l.261.018c1.036 0 1.81-.815 1.901-1.082-.096-.182-.762-.634-2.025-.81a5.823 5.823 0 00-.821-.059c-.812 0-1.243.183-1.345.282zm43.605-1.245c.079.564-1.033 2.07-2.484 2.272-1.45.202-2.691-.975-2.771-1.539-.076-.564 1.036-1.187 2.486-1.388 1.45-.203 2.689.092 2.769.655zm-2.819 2.56c-1.396 0-2.601-1.086-2.7-1.791-.115-.846 1.278-1.489 2.712-1.688.316-.044.629-.066.93-.066 1.238 0 2.058.363 2.14.949.053.379-.238.964-.739 1.492-.331.347-1.026.948-1.973 1.079l-.37.025zm.943-3.013c-.276 0-.564.021-.856.061-1.441.201-2.301.779-2.259 1.089.048.341.968 1.332 2.173 1.332l.297-.021c.787-.109 1.378-.623 1.66-.919.443-.465.619-.903.598-1.052-.028-.198-.56-.49-1.613-.49zm3.965 32.843a1.594 1.594 0 01-1.324-2.483c3.398-5.075 2.776-10.25 2.175-15.255-.257-2.132-.521-4.337-.453-6.453.07-2.177.347-3.973.614-5.71.317-2.058.617-4.002.493-6.31a1.595 1.595 0 113.186-.172c.142 2.638-.197 4.838-.525 6.967-.253 1.643-.515 3.342-.578 5.327-.061 1.874.178 3.864.431 5.97.64 5.322 1.365 11.354-2.691 17.411a1.596 1.596 0 01-1.328.708z"></path>
  </symbol>

  <symbol id="mysql" viewBox="0 0 128 128">
    <path fill="#00618A" d="M117.688 98.242c-6.973-.191-12.297.461-16.852 2.379-1.293.547-3.355.559-3.566 2.18.711.746.82 1.859 1.387 2.777 1.086 1.754 2.922 4.113 4.559 5.352 1.789 1.348 3.633 2.793 5.551 3.961 3.414 2.082 7.223 3.27 10.504 5.352 1.938 1.23 3.859 2.777 5.75 4.164.934.684 1.563 1.75 2.773 2.18v-.195c-.637-.812-.801-1.93-1.387-2.777l-2.578-2.578c-2.52-3.344-5.719-6.281-9.117-8.719-2.711-1.949-8.781-4.578-9.91-7.73l-.199-.199c1.922-.219 4.172-.914 5.949-1.391 2.98-.797 5.645-.59 8.719-1.387l4.164-1.187v-.793c-1.555-1.594-2.664-3.707-4.359-5.152-4.441-3.781-9.285-7.555-14.273-10.703-2.766-1.746-6.184-2.883-9.117-4.363-.988-.496-2.719-.758-3.371-1.586-1.539-1.961-2.379-4.449-3.566-6.738-2.488-4.793-4.93-10.023-7.137-15.066-1.504-3.437-2.484-6.828-4.359-9.91-9-14.797-18.687-23.73-33.695-32.508-3.195-1.867-7.039-2.605-11.102-3.57l-6.543-.395c-1.332-.555-2.715-2.184-3.965-2.977C16.977 3.52 4.223-3.312.539 5.672-1.785 11.34 4.016 16.871 6.09 19.746c1.457 2.012 3.32 4.273 4.359 6.539.688 1.492.805 2.984 1.391 4.559 1.438 3.883 2.695 8.109 4.559 11.695.941 1.816 1.98 3.727 3.172 5.352.727.996 1.98 1.438 2.18 2.973-1.227 1.715-1.297 4.375-1.984 6.543-3.098 9.77-1.926 21.91 2.578 29.137 1.383 2.223 4.641 6.98 9.117 5.156 3.918-1.598 3.043-6.539 4.164-10.902.254-.988.098-1.715.594-2.379v.199l3.57 7.133c2.641 4.254 7.324 8.699 11.297 11.699 2.059 1.555 3.68 4.242 6.344 5.152v-.199h-.199c-.516-.805-1.324-1.137-1.98-1.781-1.551-1.523-3.277-3.414-4.559-5.156-3.613-4.902-6.805-10.27-9.711-15.855-1.391-2.668-2.598-5.609-3.77-8.324-.453-1.047-.445-2.633-1.387-3.172-1.281 1.988-3.172 3.598-4.164 5.945-1.582 3.754-1.789 8.336-2.375 13.082-.348.125-.195.039-.398.199-2.762-.668-3.73-3.508-4.758-5.949-2.594-6.164-3.078-16.09-.793-23.191.59-1.836 3.262-7.617 2.18-9.316-.516-1.691-2.219-2.672-3.172-3.965-1.18-1.598-2.355-3.703-3.172-5.551-2.125-4.805-3.113-10.203-5.352-15.062-1.07-2.324-2.875-4.676-4.359-6.738-1.645-2.289-3.484-3.977-4.758-6.742-.453-.984-1.066-2.559-.398-3.566.215-.684.516-.969 1.191-1.191 1.148-.887 4.352.297 5.547.793 3.18 1.32 5.832 2.578 8.527 4.363 1.289.855 2.598 2.512 4.16 2.973h1.785c2.789.641 5.914.195 8.523.988 4.609 1.402 8.738 3.582 12.488 5.949 11.422 7.215 20.766 17.48 27.156 29.734 1.027 1.973 1.473 3.852 2.379 5.945 1.824 4.219 4.125 8.559 5.941 12.688 1.816 4.113 3.582 8.27 6.148 11.695 1.348 1.801 6.551 2.766 8.918 3.766 1.66.699 4.379 1.43 5.949 2.379 3 1.809 5.906 3.965 8.723 5.945 1.402.992 5.73 3.168 5.945 4.957zm-88.605-75.52c-1.453-.027-2.48.156-3.566.395v.199h.195c.695 1.422 1.918 2.34 2.777 3.566l1.98 4.164.199-.195c1.227-.867 1.789-2.25 1.781-4.363-.492-.52-.562-1.164-.992-1.785-.562-.824-1.66-1.289-2.375-1.98zm0 0"></path>
  </symbol>

  <symbol id="mongodb" viewBox="0 0 128 128">
    <path fill-rule="evenodd" clip-rule="evenodd" fill="#439934" d="M88.038 42.812c1.605 4.643 2.761 9.383 3.141 14.296.472 6.095.256 12.147-1.029 18.142-.035.165-.109.32-.164.48-.403.001-.814-.049-1.208.012-3.329.523-6.655 1.065-9.981 1.604-3.438.557-6.881 1.092-10.313 1.687-1.216.21-2.721-.041-3.212 1.641-.014.046-.154.054-.235.08l.166-10.051-.169-24.252 1.602-.275c2.62-.429 5.24-.864 7.862-1.281 3.129-.497 6.261-.98 9.392-1.465 1.381-.215 2.764-.412 4.148-.618z"></path><path fill-rule="evenodd" clip-rule="evenodd" fill="#45A538" d="M61.729 110.054c-1.69-1.453-3.439-2.842-5.059-4.37-8.717-8.222-15.093-17.899-18.233-29.566-.865-3.211-1.442-6.474-1.627-9.792-.13-2.322-.318-4.665-.154-6.975.437-6.144 1.325-12.229 3.127-18.147l.099-.138c.175.233.427.439.516.702 1.759 5.18 3.505 10.364 5.242 15.551 5.458 16.3 10.909 32.604 16.376 48.9.107.318.384.579.583.866l-.87 2.969z"></path><path fill-rule="evenodd" clip-rule="evenodd" fill="#46A037" d="M88.038 42.812c-1.384.206-2.768.403-4.149.616-3.131.485-6.263.968-9.392 1.465-2.622.417-5.242.852-7.862 1.281l-1.602.275-.012-1.045c-.053-.859-.144-1.717-.154-2.576-.069-5.478-.112-10.956-.18-16.434-.042-3.429-.105-6.857-.175-10.285-.043-2.13-.089-4.261-.185-6.388-.052-1.143-.236-2.28-.311-3.423-.042-.657.016-1.319.029-1.979.817 1.583 1.616 3.178 2.456 4.749 1.327 2.484 3.441 4.314 5.344 6.311 7.523 7.892 12.864 17.068 16.193 27.433z"></path><path fill-rule="evenodd" clip-rule="evenodd" fill="#409433" d="M65.036 80.753c.081-.026.222-.034.235-.08.491-1.682 1.996-1.431 3.212-1.641 3.432-.594 6.875-1.13 10.313-1.687 3.326-.539 6.652-1.081 9.981-1.604.394-.062.805-.011 1.208-.012-.622 2.22-1.112 4.488-1.901 6.647-.896 2.449-1.98 4.839-3.131 7.182a49.142 49.142 0 01-6.353 9.763c-1.919 2.308-4.058 4.441-6.202 6.548-1.185 1.165-2.582 2.114-3.882 3.161l-.337-.23-1.214-1.038-1.256-2.753a41.402 41.402 0 01-1.394-9.838l.023-.561.171-2.426c.057-.828.133-1.655.168-2.485.129-2.982.241-5.964.359-8.946z"></path><path fill-rule="evenodd" clip-rule="evenodd" fill="#4FAA41" d="M65.036 80.753c-.118 2.982-.23 5.964-.357 8.947-.035.83-.111 1.657-.168 2.485l-.765.289c-1.699-5.002-3.399-9.951-5.062-14.913-2.75-8.209-5.467-16.431-8.213-24.642a4498.887 4498.887 0 00-6.7-19.867c-.105-.31-.407-.552-.617-.826l4.896-9.002c.168.292.39.565.496.879a6167.476 6167.476 0 016.768 20.118c2.916 8.73 5.814 17.467 8.728 26.198.116.349.308.671.491 1.062l.67-.78-.167 10.052z"></path><path fill-rule="evenodd" clip-rule="evenodd" fill="#4AA73C" d="M43.155 32.227c.21.274.511.516.617.826a4498.887 4498.887 0 016.7 19.867c2.746 8.211 5.463 16.433 8.213 24.642 1.662 4.961 3.362 9.911 5.062 14.913l.765-.289-.171 2.426-.155.559c-.266 2.656-.49 5.318-.814 7.968-.163 1.328-.509 2.632-.772 3.947-.198-.287-.476-.548-.583-.866-5.467-16.297-10.918-32.6-16.376-48.9a3888.972 3888.972 0 00-5.242-15.551c-.089-.263-.34-.469-.516-.702l3.272-8.84z"></path><path fill-rule="evenodd" clip-rule="evenodd" fill="#57AE47" d="M65.202 70.702l-.67.78c-.183-.391-.375-.714-.491-1.062-2.913-8.731-5.812-17.468-8.728-26.198a6167.476 6167.476 0 00-6.768-20.118c-.105-.314-.327-.588-.496-.879l6.055-7.965c.191.255.463.482.562.769 1.681 4.921 3.347 9.848 5.003 14.778 1.547 4.604 3.071 9.215 4.636 13.813.105.308.47.526.714.786l.012 1.045c.058 8.082.115 16.167.171 24.251z"></path><path fill-rule="evenodd" clip-rule="evenodd" fill="#60B24F" d="M65.021 45.404c-.244-.26-.609-.478-.714-.786-1.565-4.598-3.089-9.209-4.636-13.813-1.656-4.93-3.322-9.856-5.003-14.778-.099-.287-.371-.514-.562-.769 1.969-1.928 3.877-3.925 5.925-5.764 1.821-1.634 3.285-3.386 3.352-5.968.003-.107.059-.214.145-.514l.519 1.306c-.013.661-.072 1.322-.029 1.979.075 1.143.259 2.28.311 3.423.096 2.127.142 4.258.185 6.388.069 3.428.132 6.856.175 10.285.067 5.478.111 10.956.18 16.434.008.861.098 1.718.152 2.577z"></path><path fill-rule="evenodd" clip-rule="evenodd" fill="#A9AA88" d="M62.598 107.085c.263-1.315.609-2.62.772-3.947.325-2.649.548-5.312.814-7.968l.066-.01.066.011a41.402 41.402 0 001.394 9.838c-.176.232-.425.439-.518.701-.727 2.05-1.412 4.116-2.143 6.166-.1.28-.378.498-.574.744l-.747-2.566.87-2.969z"></path><path fill-rule="evenodd" clip-rule="evenodd" fill="#B6B598" d="M62.476 112.621c.196-.246.475-.464.574-.744.731-2.05 1.417-4.115 2.143-6.166.093-.262.341-.469.518-.701l1.255 2.754c-.248.352-.59.669-.728 1.061l-2.404 7.059c-.099.283-.437.483-.663.722l-.695-3.985z"></path><path fill-rule="evenodd" clip-rule="evenodd" fill="#C2C1A7" d="M63.171 116.605c.227-.238.564-.439.663-.722l2.404-7.059c.137-.391.48-.709.728-1.061l1.215 1.037c-.587.58-.913 1.25-.717 2.097l-.369 1.208c-.168.207-.411.387-.494.624-.839 2.403-1.64 4.819-2.485 7.222-.107.305-.404.544-.614.812-.109-1.387-.22-2.771-.331-4.158z"></path><path fill-rule="evenodd" clip-rule="evenodd" fill="#CECDB7" d="M63.503 120.763c.209-.269.506-.508.614-.812.845-2.402 1.646-4.818 2.485-7.222.083-.236.325-.417.494-.624l-.509 5.545c-.136.157-.333.294-.398.477-.575 1.614-1.117 3.24-1.694 4.854-.119.333-.347.627-.525.938-.158-.207-.441-.407-.454-.623-.051-.841-.016-1.688-.013-2.533z"></path><path fill-rule="evenodd" clip-rule="evenodd" fill="#DBDAC7" d="M63.969 123.919c.178-.312.406-.606.525-.938.578-1.613 1.119-3.239 1.694-4.854.065-.183.263-.319.398-.477l.012 3.64-1.218 3.124-1.411-.495z"></path><path fill-rule="evenodd" clip-rule="evenodd" fill="#EBE9DC" d="M65.38 124.415l1.218-3.124.251 3.696-1.469-.572z"></path><path fill-rule="evenodd" clip-rule="evenodd" fill="#CECDB7" d="M67.464 110.898c-.196-.847.129-1.518.717-2.097l.337.23-1.054 1.867z"></path><path fill-rule="evenodd" clip-rule="evenodd" fill="#4FAA41" d="M64.316 95.172l-.066-.011-.066.01.155-.559-.023.56z"></path>
  </symbol>

  <symbol id="sqlite" viewBox="0 0 128 128">
    <path fill="white" d="M115.95 2.781c-5.504-4.906-12.16-2.933-18.738 2.902a47.9 47.9 0 00-2.918 2.856c-11.246 11.93-21.684 34.02-24.926 50.895 1.262 2.563 2.25 5.832 2.902 8.328.325 1.238.617 2.488.875 3.746 0 0-.101-.379-.515-1.578l-.266-.777a8.12 8.12 0 00-.176-.426c-.734-1.707-2.761-5.309-3.656-6.875a172.299 172.299 0 00-2.008 6.27c2.582 4.714 4.149 12.8 4.149 12.8s-.133-.527-.782-2.355c-.57-1.617-3.437-6.637-4.117-7.809-1.16 4.29-1.62 7.18-1.207 7.883.813 1.363 1.578 3.723 2.25 6.324 1.528 5.868 2.586 13.016 2.586 13.016l.094 1.192c-.203 4.886-.102 9.781.297 14.656.508 6.113 1.457 11.359 2.668 14.172l.824-.45c-1.781-5.535-2.504-12.792-2.184-21.155.477-12.79 3.422-28.215 8.856-44.29 9.191-24.261 21.938-43.733 33.602-53.034-10.63 9.601-25.023 40.695-29.332 52.203C79.404 74.162 75.99 86.252 73.93 97.84c3.555-10.863 15.043-15.527 15.043-15.527s5.637-6.954 12.223-16.883c-3.945.898-10.426 2.441-12.598 3.351-3.2 1.34-4.063 1.797-4.063 1.797s10.371-6.312 19.27-9.172c12.234-19.27 25.566-46.645 12.145-58.625M16.896 5.681c-5.398.02-9.77 4.39-9.785 9.789v88.574c.016 5.398 4.39 9.765 9.785 9.785h50.227a122.816 122.816 0 01-.277-14.438c-.031-.332-.059-.754-.086-1.067a143.095 143.095 0 00-2.523-12.684c-.645-2.507-1.465-4.789-1.965-5.636-.621-1.051-.524-1.653-.52-2.305 0-.64.082-1.305.2-2.059.316-1.878.73-3.738 1.246-5.574l1.156-.148c-.09-.188-.074-.348-.164-.516l-.219-2.031c.64-2.137 1.316-4.262 2.04-6.371l1.066-.102c-.043-.082-.055-.203-.098-.28l-.23-1.685c3.363-17.496 13.8-39.699 25.601-52.219.352-.37.711-.683 1.055-1.035z"></path>
  </symbol>

  <symbol id="google cloud" viewBox="0 0 128 128">
    <path fill="#ea4535" d="M80.6 40.3h.4l-.2-.2 14-14v-.3c-11.8-10.4-28.1-14-43.2-9.5C36.5 20.8 24.9 32.8 20.7 48c.2-.1.5-.2.8-.2 5.2-3.4 11.4-5.4 17.9-5.4 2.2 0 4.3.2 6.4.6.1-.1.2-.1.3-.1 9-9.9 24.2-11.1 34.6-2.6h-.1z"></path><path fill="#557ebf" d="M108.1 47.8c-2.3-8.5-7.1-16.2-13.8-22.1L80 39.9c6 4.9 9.5 12.3 9.3 20v2.5c16.9 0 16.9 25.2 0 25.2H63.9v20h-.1l.1.2h25.4c14.6.1 27.5-9.3 31.8-23.1 4.3-13.8-1-28.8-13-36.9z"></path><path fill="#36a852" d="M39 107.9h26.3V87.7H39c-1.9 0-3.7-.4-5.4-1.1l-15.2 14.6v.2c6 4.3 13.2 6.6 20.7 6.6z"></path><path fill="#f9bc15" d="M40.2 41.9c-14.9.1-28.1 9.3-32.9 22.8-4.8 13.6 0 28.5 11.8 37.3l15.6-14.9c-8.6-3.7-10.6-14.5-4-20.8 6.6-6.4 17.8-4.4 21.7 3.8L68 55.2C61.4 46.9 51.1 42 40.2 42.1z"></path>
  </symbol>

  <symbol id="aws" viewBox="0 0 128 128">
    <path fill="#f90" d="M108.59 26.148c-1.852 0-3.622.211-5.305.715-1.684.504-3.117 1.223-4.379 2.188a10.829 10.829 0 0 0-3.031 3.453c-.757 1.348-1.137 2.906-1.137 4.676 0 2.187.716 4.25 2.106 6.105 1.386 1.895 3.66 3.324 6.734 4.293l6.106 1.895c2.062.675 3.496 1.391 4.254 2.191.757.801 1.136 1.765 1.136 2.945 0 1.726-.758 3.074-2.191 4-1.43.925-3.492 1.391-6.145 1.391-1.687 0-3.328-.168-5.011-.504a23.102 23.102 0 0 1-4.633-1.476c-.421-.168-.801-.336-1.051-.418a2.357 2.357 0 0 0-.758-.13c-.634 0-.969.423-.969 1.305v2.149a2.919 2.919 0 0 0 .254 1.18c.168.38.629.8 1.305 1.18 1.094.628 2.734 1.179 4.84 1.683 2.105.504 4.297.758 6.484.758 2.15 0 4.129-.297 6.024-.883 1.808-.551 3.367-1.309 4.672-2.36 1.304-1.01 2.316-2.273 3.074-3.707.714-1.429 1.094-3.07 1.094-4.882 0-2.188-.633-4.168-1.938-5.895-1.304-1.727-3.491-3.074-6.523-4.043l-5.98-1.895c-2.23-.713-3.79-1.516-4.634-2.316-.84-.797-1.261-1.808-1.261-2.988 0-1.726.671-2.95 1.98-3.746 1.305-.801 3.199-1.18 5.598-1.18 2.988 0 5.683.547 8.086 1.64.714.337 1.261.508 1.597.508.633 0 .969-.463.969-1.347v-1.98c0-.59-.125-1.051-.379-1.391-.25-.378-.672-.715-1.262-1.051-.422-.254-1.011-.504-1.77-.758a32.528 32.528 0 0 0-2.398-.676c-.886-.168-1.769-.336-2.738-.46a21.347 21.347 0 0 0-2.82-.169zm-86.822.082c-2.316 0-4.508.254-6.57.801-2.063.505-3.831 1.137-5.303 1.895-.59.297-.97.59-1.18.883-.211.296-.293.8-.293 1.476v2.063c0 .882.293 1.304.883 1.304.168 0 .378-.043.674-.125.293-.086.796-.254 1.472-.547a33.416 33.416 0 0 1 4.547-1.433A19.176 19.176 0 0 1 20.547 32c3.242 0 5.513.633 6.863 1.938 1.304 1.303 1.98 3.534 1.98 6.734v3.074c-1.683-.379-3.283-.715-4.843-.926-1.558-.21-3.031-.336-4.461-.336-4.34 0-7.75 1.094-10.316 3.286-2.571 2.187-3.832 5.093-3.832 8.671 0 3.368 1.05 6.063 3.113 8.086 2.066 2.02 4.887 3.032 8.422 3.032 4.97 0 9.097-1.938 12.379-5.813a34.153 34.153 0 0 0 1.304 2.484 13.28 13.28 0 0 0 1.516 1.98c.422.38.844.59 1.266.59.334 0 .714-.128 1.093-.378l2.653-1.77c.546-.42.8-.843.8-1.261a1.86 1.86 0 0 0-.293-.97 22.469 22.469 0 0 1-1.347-3.03c-.297-.925-.465-2.19-.465-3.75h-.086V40c0-4.633-1.176-8.086-3.492-10.36-2.36-2.273-6.025-3.41-11.033-3.41zm19.58 1.012c-.676 0-1.012.379-1.012 1.051 0 .297.129.844.379 1.687l9.894 32.547c.254.8.547 1.387.887 1.641.336.297.84.422 1.598.422h3.62c.759 0 1.347-.125 1.684-.422.34-.293.591-.84.801-1.684l6.485-27.117 6.527 27.16c.168.84.46 1.387.8 1.684.337.292.883.422 1.684.422h3.621c.715 0 1.262-.167 1.598-.422.34-.253.633-.8.887-1.64L90.949 30.02c.168-.46.25-.797.293-1.051.043-.254.086-.466.086-.676 0-.715-.379-1.05-1.055-1.05H86.36c-.757 0-1.308.166-1.644.421-.293.25-.59.8-.84 1.64L76.59 57.517l-6.653-28.211c-.166-.8-.464-1.39-.8-1.64-.336-.298-.884-.423-1.684-.423h-3.367c-.758 0-1.348.167-1.688.422-.335.25-.588.8-.796 1.64l-6.57 27.876-7.075-27.875c-.25-.8-.504-1.39-.84-1.64-.297-.298-.844-.423-1.644-.423h-4.125zM21.64 47.496a31.816 31.816 0 0 1 3.96.25 34.401 34.401 0 0 1 3.872.719v1.765c0 1.435-.168 2.653-.422 3.665-.25 1.01-.758 1.895-1.43 2.695-1.137 1.262-2.484 2.187-4 2.695-1.516.504-2.949.758-4.336.758-1.937 0-3.41-.508-4.422-1.559-1.054-1.01-1.558-2.484-1.558-4.464 0-2.106.675-3.704 2.062-4.84 1.391-1.137 3.454-1.684 6.274-1.684zM118 73.348c-4.432.063-9.664 1.052-13.621 3.832-1.223.883-1.012 2.062.336 1.894 4.508-.547 14.44-1.726 16.21.547 1.77 2.23-1.976 11.62-3.663 15.79-.504 1.26.59 1.769 1.726.8 7.41-6.231 9.348-19.242 7.832-21.137-.757-.925-4.388-1.79-8.82-1.726zM1.63 75.859c-.926.116-1.347 1.236-.368 2.121 16.508 14.902 38.359 23.872 62.613 23.872 17.305 0 37.43-5.43 51.281-15.66 2.273-1.689.298-4.254-2.02-3.204-15.533 6.57-32.421 9.77-47.788 9.77-22.778 0-44.8-6.273-62.653-16.633-.39-.231-.755-.304-1.064-.266z"></path>
  </symbol>

  <symbol id="microsoft azure" viewBox="0 0 128 128">
      <path d="M43.983 4.653a5.911 5.911 0 015.6 4.022l35.91 106.396a5.911 5.911 0 01-5.603 7.802h41.38a5.917 5.917 0 004.8-2.465 5.909 5.909 0 00.798-5.34L90.961 8.672a5.91 5.91 0 00-5.602-4.022zm-1.336.478a5.92 5.92 0 00-5.61 4.029L1.132 115.55a5.91 5.91 0 005.6 7.8h28.893c1.239 0 2.446-.41 3.452-1.113a5.923 5.923 0 002.157-2.916l7.019-20.71-13.411-12.857c-.246-.273-1.353-2.274-.369-4.002 1.108-1.659 2.955-1.659 2.955-1.659h17.285l9.074-26.145L48.274 8.321c-.042-.205-.914-1.365-2.281-2.28-1.37-.915-3.345-.909-3.345-.909zm-4.88 75.74a2.724 2.724 0 00-1.86 4.718l37.83 35.31c1.101 1.03 2.502 1.631 4.007 1.631 0 0 1.282.068 2.055-.033 1.817-.273 3.525-1.768 4.09-2.39 1.457-1.939.794-4.95.794-4.95l-11.45-34.28z" fill="#008AD7"></path>
  </symbol>
          

  <symbol id="git" viewBox="0 0 128 128">
    <path fill="#F34F29" d="M124.737 58.378L69.621 3.264c-3.172-3.174-8.32-3.174-11.497 0L46.68 14.71l14.518 14.518c3.375-1.139 7.243-.375 9.932 2.314 2.703 2.706 3.461 6.607 2.294 9.993l13.992 13.993c3.385-1.167 7.292-.413 9.994 2.295 3.78 3.777 3.78 9.9 0 13.679a9.673 9.673 0 01-13.683 0 9.677 9.677 0 01-2.105-10.521L68.574 47.933l-.002 34.341a9.708 9.708 0 012.559 1.828c3.778 3.777 3.778 9.898 0 13.683-3.779 3.777-9.904 3.777-13.679 0-3.778-3.784-3.778-9.905 0-13.683a9.65 9.65 0 013.167-2.11V47.333a9.581 9.581 0 01-3.167-2.111c-2.862-2.86-3.551-7.06-2.083-10.576L41.056 20.333 3.264 58.123a8.133 8.133 0 000 11.5l55.117 55.114c3.174 3.174 8.32 3.174 11.499 0l54.858-54.858a8.135 8.135 0 00-.001-11.501z"></path>
  </symbol>

  <symbol id="github" viewBox="0 0 128 128">
    <g fill="white"><path fill-rule="evenodd" clip-rule="evenodd" d="M64 5.103c-33.347 0-60.388 27.035-60.388 60.388 0 26.682 17.303 49.317 41.297 57.303 3.017.56 4.125-1.31 4.125-2.905 0-1.44-.056-6.197-.082-11.243-16.8 3.653-20.345-7.125-20.345-7.125-2.747-6.98-6.705-8.836-6.705-8.836-5.48-3.748.413-3.67.413-3.67 6.063.425 9.257 6.223 9.257 6.223 5.386 9.23 14.127 6.562 17.573 5.02.542-3.903 2.107-6.568 3.834-8.076-13.413-1.525-27.514-6.704-27.514-29.843 0-6.593 2.36-11.98 6.223-16.21-.628-1.52-2.695-7.662.584-15.98 0 0 5.07-1.623 16.61 6.19C53.7 35 58.867 34.327 64 34.304c5.13.023 10.3.694 15.127 2.033 11.526-7.813 16.59-6.19 16.59-6.19 3.287 8.317 1.22 14.46.593 15.98 3.872 4.23 6.215 9.617 6.215 16.21 0 23.194-14.127 28.3-27.574 29.796 2.167 1.874 4.097 5.55 4.097 11.183 0 8.08-.07 14.583-.07 16.572 0 1.607 1.088 3.49 4.148 2.897 23.98-7.994 41.263-30.622 41.263-57.294C124.388 32.14 97.35 5.104 64 5.104z"></path><path d="M26.484 91.806c-.133.3-.605.39-1.035.185-.44-.196-.685-.605-.543-.906.13-.31.603-.395 1.04-.188.44.197.69.61.537.91zm2.446 2.729c-.287.267-.85.143-1.232-.28-.396-.42-.47-.983-.177-1.254.298-.266.844-.14 1.24.28.394.426.472.984.17 1.255zM31.312 98.012c-.37.258-.976.017-1.35-.52-.37-.538-.37-1.183.01-1.44.373-.258.97-.025 1.35.507.368.545.368 1.19-.01 1.452zm3.261 3.361c-.33.365-1.036.267-1.552-.23-.527-.487-.674-1.18-.343-1.544.336-.366 1.045-.264 1.564.23.527.486.686 1.18.333 1.543zm4.5 1.951c-.147.473-.825.688-1.51.486-.683-.207-1.13-.76-.99-1.238.14-.477.823-.7 1.512-.485.683.206 1.13.756.988 1.237zm4.943.361c.017.498-.563.91-1.28.92-.723.017-1.308-.387-1.315-.877 0-.503.568-.91 1.29-.924.717-.013 1.306.387 1.306.88zm4.598-.782c.086.485-.413.984-1.126 1.117-.7.13-1.35-.172-1.44-.653-.086-.498.422-.997 1.122-1.126.714-.123 1.354.17 1.444.663zm0 0"></path></g>
  </symbol>

  <symbol id="docker" viewBox="0 0 128 128">
    <path d="M124.8 52.1c-4.3-2.5-10-2.8-14.8-1.4-.6-5.2-4-9.7-8-12.9l-1.6-1.3-1.4 1.6c-2.7 3.1-3.5 8.3-3.1 12.3.3 2.9 1.2 5.9 3 8.3-1.4.8-2.9 1.9-4.3 2.4-2.8 1-5.9 2-8.9 2H79V49H66V24H51v12H26v13H13v14H1.8l-.2 1.5c-.5 6.4.3 12.6 3 18.5l1.1 2.2.1.2c7.9 13.4 21.7 19 36.8 19 29.2 0 53.3-13.1 64.3-40.6 7.4.4 15-1.8 18.6-8.9l.9-1.8-1.6-1zM28 39h10v11H28V39zm13.1 44.2c0 1.7-1.4 3.1-3.1 3.1-1.7 0-3.1-1.4-3.1-3.1 0-1.7 1.4-3.1 3.1-3.1 1.7.1 3.1 1.4 3.1 3.1zM28 52h10v11H28V52zm-13 0h11v11H15V52zm27.7 50.2c-15.8-.1-24.3-5.4-31.3-12.4 2.1.1 4.1.2 5.9.2 1.6 0 3.2 0 4.7-.1 3.9-.2 7.3-.7 10.1-1.5 2.3 5.3 6.5 10.2 14 13.8h-3.4zM51 63H40V52h11v11zm0-13H40V39h11v11zm13 13H53V52h11v11zm0-13H53V39h11v11zm0-13H53V26h11v11zm13 26H66V52h11v11zM38.8 81.2c-.2-.1-.5-.2-.8-.2-1.2 0-2.2 1-2.2 2.2 0 1.2 1 2.2 2.2 2.2s2.2-1 2.2-2.2c0-.3-.1-.6-.2-.8-.2.3-.4.5-.8.5-.5 0-.9-.4-.9-.9.1-.4.3-.7.5-.8z" fill="#019BC6"></path>
  </symbol>

  <symbol id="adobe xd" viewBox="0 0 128 128">
    <path fill="#470137" d="M22.667 1.6h82.666C117.867 1.6 128 11.733 128 24.267v79.466c0 12.534-10.133 22.667-22.667 22.667H22.667C10.133 126.4 0 116.267 0 103.733V24.267C0 11.733 10.133 1.6 22.667 1.6Z"></path><path fill="#ff61f6" d="m67.307 34.4-16 26.4 17.066 28c.107.213.16.427.107.64s-.267.053-.587.107H55.68c-.853 0-1.44-.054-1.813-.587-1.12-2.24-2.294-4.427-3.414-6.667-1.12-2.186-2.346-4.426-3.626-6.72-1.28-2.293-2.56-4.586-3.84-6.933h-.107c-1.12 2.293-2.347 4.587-3.573 6.88a899.142 899.142 0 0 0-3.627 6.827c-1.227 2.24-2.453 4.533-3.68 6.72-.213.533-.64.586-1.227.586H19.04c-.213 0-.373.107-.373-.16a.74.74 0 0 1 .106-.586l16.587-27.2-16.16-27.36c-.16-.214-.213-.427-.107-.534.107-.16.32-.213.534-.213h12.106c.267 0 .534.053.747.107.213.106.373.266.533.48 1.014 2.293 2.187 4.586 3.414 6.88 1.28 2.293 2.506 4.533 3.84 6.773 1.28 2.24 2.453 4.48 3.573 6.773h.107c1.12-2.346 2.293-4.64 3.466-6.88 1.174-2.24 2.4-4.48 3.627-6.72 1.227-2.24 2.4-4.533 3.573-6.72.054-.213.16-.426.32-.533.214-.107.427-.16.694-.107H66.88a.491.491 0 0 1 .587.374c.053.053-.054.266-.16.373Zm24.64 56.267c-3.947.053-7.894-.747-11.467-2.4-3.36-1.547-6.133-4.107-8.053-7.254-1.974-3.253-2.934-7.306-2.934-12.16-.053-3.946.96-7.84 2.934-11.253 2.026-3.467 4.96-6.347 8.48-8.267 3.733-2.08 8.213-3.093 13.493-3.093.267 0 .64 0 1.12.053.48.054 1.013.054 1.653.107V29.547c0-.374.16-.587.534-.587h10.826c.267-.053.48.16.534.373v50.88c0 .96.053 2.027.106 3.2.107 1.12.16 2.187.214 3.094 0 .373-.16.693-.534.853a40.73 40.73 0 0 1-8.693 2.56c-2.72.48-5.44.747-8.213.747zM97.173 80V56.533c-.48-.106-.96-.213-1.44-.266a19.216 19.216 0 0 0-1.76-.107c-2.08 0-4.16.427-6.026 1.387a11.956 11.956 0 0 0-4.534 3.946c-1.173 1.707-1.76 4-1.76 6.774a14.863 14.863 0 0 0 .907 5.493c.533 1.44 1.333 2.72 2.4 3.787a9.214 9.214 0 0 0 3.627 2.133c1.44.48 2.933.693 4.426.693.8 0 1.547-.053 2.24-.106.694.053 1.28-.054 1.92-.267z"></path>
  </symbol>

  <symbol id="figma" viewBox="0 0 128 128">
    <path fill="#0acf83" d="M45.5 129c11.9 0 21.5-9.6 21.5-21.5V86H45.5C33.6 86 24 95.6 24 107.5S33.6 129 45.5 129zm0 0"></path><path fill="#a259ff" d="M24 64.5C24 52.6 33.6 43 45.5 43H67v43H45.5C33.6 86 24 76.4 24 64.5zm0 0"></path><path fill="#f24e1e" d="M24 21.5C24 9.6 33.6 0 45.5 0H67v43H45.5C33.6 43 24 33.4 24 21.5zm0 0"></path><path fill="#ff7262" d="M67 0h21.5C100.4 0 110 9.6 110 21.5S100.4 43 88.5 43H67zm0 0"></path><path fill="#1abcfe" d="M110 64.5c0 11.9-9.6 21.5-21.5 21.5S67 76.4 67 64.5 76.6 43 88.5 43 110 52.6 110 64.5zm0 0"></path>
  </symbol>

  <symbol id="circleci" viewBox="0 0 128 128">
    <path fill="white" d="M47.809 64c0-8.45 6.847-15.23 15.23-15.23 8.387 0 15.234 6.847 15.234 15.23S71.426 79.23 63.04 79.23c-8.383 0-15.23-6.847-15.23-15.23zm15.23-64C33.152 0 8.13 20.48 1.023 48.129c-.062.191-.062.383-.062.64a3.07 3.07 0 003.07 3.07h25.793c1.215 0 2.305-.702 2.75-1.792 5.313-11.52 16.961-19.582 30.465-19.582 18.496 0 33.535 15.039 33.535 33.535 0 18.496-15.039 33.535-33.535 33.535-13.504 0-25.152-8-30.465-19.582-.511-1.023-1.535-1.793-2.75-1.793H4.031a3.07 3.07 0 00-3.07 3.07c0 .196.062.387.062.641C8.063 107.52 33.153 128 63.04 128c35.328 0 64-28.672 64-64s-28.672-64-64-64zm0 0"></path>
  </symbol>    

  <symbol id="jira" viewBox="0 0 128 128">
    <path fill="#2684ff" d="m61.805 16c0 11.52 9.3287 20.848 20.848 20.848h8.5v8.2266c0 11.52 9.3277 20.848 20.848 20.848v-45.945a3.978 3.978 0 0 0-3.9766-3.9766h-46.219zm-22.902 23.039c0 11.519 9.3248 20.848 20.844 20.848h8.5039v8.2266c0 11.52 9.3277 20.848 20.848 20.848v-45.945a3.983 3.983 0 0 0-3.9766-3.9766h-46.219zm-22.902 23.039c0 11.52 9.3238 20.848 20.844 20.848h8.5039v8.2266c0 11.524 9.3287 20.848 20.848 20.848v-45.941a3.984 3.984 0 0 0-3.9766-3.9805h-46.219z"></path>
  </symbol>

  <symbol id="newtab" viewBox="0 0 30 30">
    <path fill="white" d="M 25.980469 2.9902344 A 1.0001 1.0001 0 0 0 25.869141 3 L 20 3 A 1.0001 1.0001 0 1 0 20 5 L 23.585938 5 L 13.292969 15.292969 A 1.0001 1.0001 0 1 0 14.707031 16.707031 L 25 6.4140625 L 25 10 A 1.0001 1.0001 0 1 0 27 10 L 27 4.1269531 A 1.0001 1.0001 0 0 0 25.980469 2.9902344 z M 6 7 C 4.9069372 7 4 7.9069372 4 9 L 4 24 C 4 25.093063 4.9069372 26 6 26 L 21 26 C 22.093063 26 23 25.093063 23 24 L 23 14 L 23 11.421875 L 21 13.421875 L 21 16 L 21 24 L 6 24 L 6 9 L 14 9 L 16 9 L 16.578125 9 L 18.578125 7 L 16 7 L 14 7 L 6 7 z"></path>
  </symbol>

  <symbol id="mail" viewBox="0 0 75.294 75.294">
    <g><path fill="black" d="M66.097,12.089h-56.9C4.126,12.089,0,16.215,0,21.286v32.722c0,5.071,4.126,9.197,9.197,9.197h56.9c5.071,0,9.197-4.126,9.197-9.197V21.287C75.295,16.215,71.169,12.089,66.097,12.089z M61.603,18.089L37.647,33.523L13.691,18.089H61.603z M66.097,57.206h-56.9C7.434,57.206,6,55.771,6,54.009V21.457l29.796,19.16c0.04,0.025,0.083,0.042,0.124,0.065c0.043,0.024,0.087,0.047,0.131,0.069c0.231,0.119,0.469,0.215,0.712,0.278c0.025,0.007,0.05,0.01,0.075,0.016c0.267,0.063,0.537,0.102,0.807,0.102c0.001,0,0.002,0,0.002,0c0.002,0,0.003,0,0.004,0c0.27,0,0.54-0.038,0.807-0.102c0.025-0.006,0.05-0.009,0.075-0.016c0.243-0.063,0.48-0.159,0.712-0.278c0.044-0.022,0.088-0.045,0.131-0.069c0.041-0.023,0.084-0.04,0.124-0.065l29.796-19.16v32.551C69.295,55.771,67.86,57.206,66.097,57.206z"/></g>
  </symbol>

  <symbol id="linkedin" viewBox="0 0 128 128">
    <path fill="#0076b2" d="M116 3H12a8.91 8.91 0 00-9 8.8v104.42a8.91 8.91 0 009 8.78h104a8.93 8.93 0 009-8.81V11.77A8.93 8.93 0 00116 3z"></path><path fill="#fff" d="M21.06 48.73h18.11V107H21.06zm9.06-29a10.5 10.5 0 11-10.5 10.49 10.5 10.5 0 0110.5-10.49M50.53 48.73h17.36v8h.24c2.42-4.58 8.32-9.41 17.13-9.41C103.6 47.28 107 59.35 107 75v32H88.89V78.65c0-6.75-.12-15.44-9.41-15.44s-10.87 7.36-10.87 15V107H50.53z"></path>
  </symbol>
          
</svg>