<svg xmlns="http://www.w3.org/2000/svg" style="display: none;">

  <symbol id="javascript" viewBox="0 0 128 128">
    <path fill="#F0DB4F" d="M1.408 1.408h125.184v125.185H1.408z"></path><path fill="#323330" d="M116.347 96.736c-.917-5.711-4.641-10.508-15.672-14.981-3.832-1.761-8.104-3.022-9.377-5.926-.452-1.69-.512-2.642-.226-3.665.821-3.32 4.784-4.355 7.925-3.403 2.023.678 3.938 2.237 5.093 4.724 5.402-3.498 5.391-3.475 9.163-5.879-1.381-2.141-2.118-3.129-3.022-4.045-3.249-3.629-7.676-5.498-14.756-5.355l-3.688.477c-3.534.893-6.902 2.748-8.877 5.235-5.926 6.724-4.236 18.492 2.975 23.335 7.104 5.332 17.54 6.545 18.873 11.531 1.297 6.104-4.486 8.08-10.234 7.378-4.236-.881-6.592-3.034-9.139-6.949-4.688 2.713-4.688 2.713-9.508 5.485 1.143 2.499 2.344 3.63 4.26 5.795 9.068 9.198 31.76 8.746 35.83-5.176.165-.478 1.261-3.666.38-8.581zM69.462 58.943H57.753l-.048 30.272c0 6.438.333 12.34-.714 14.149-1.713 3.558-6.152 3.117-8.175 2.427-2.059-1.012-3.106-2.451-4.319-4.485-.333-.584-.583-1.036-.667-1.071l-9.52 5.83c1.583 3.249 3.915 6.069 6.902 7.901 4.462 2.678 10.459 3.499 16.731 2.059 4.082-1.189 7.604-3.652 9.448-7.401 2.666-4.915 2.094-10.864 2.07-17.444.06-10.735.001-21.468.001-32.237z"></path>
  </symbol>

  <symbol id="typescript" viewBox="0 0 128 128">
    <path fill="#fff" d="M22.67 47h99.67v73.67H22.67z"></path><path data-name="original" fill="#007acc" d="M1.5 63.91v62.5h125v-125H1.5zm100.73-5a15.56 15.56 0 017.82 4.5 20.58 20.58 0 013 4c0 .16-5.4 3.81-8.69 5.85-.12.08-.6-.44-1.13-1.23a7.09 7.09 0 00-5.87-3.53c-3.79-.26-6.23 1.73-6.21 5a4.58 4.58 0 00.54 2.34c.83 1.73 2.38 2.76 7.24 4.86 8.95 3.85 12.78 6.39 15.16 10 2.66 4 3.25 10.46 1.45 15.24-2 5.2-6.9 8.73-13.83 9.9a38.32 38.32 0 01-9.52-.1 23 23 0 01-12.72-6.63c-1.15-1.27-3.39-4.58-3.25-4.82a9.34 9.34 0 011.15-.73L82 101l3.59-2.08.75 1.11a16.78 16.78 0 004.74 4.54c4 2.1 9.46 1.81 12.16-.62a5.43 5.43 0 00.69-6.92c-1-1.39-3-2.56-8.59-5-6.45-2.78-9.23-4.5-11.77-7.24a16.48 16.48 0 01-3.43-6.25 25 25 0 01-.22-8c1.33-6.23 6-10.58 12.82-11.87a31.66 31.66 0 019.49.26zm-29.34 5.24v5.12H56.66v46.23H45.15V69.26H28.88v-5a49.19 49.19 0 01.12-5.17C29.08 59 39 59 51 59h21.83z"></path>
  </symbol>

  <symbol id="sql" viewBox="0 0 128 128">
    <path fill="#d1d1d1" d="M51.395 24.879c-27.422 0-49.649-3.832-49.649-8.535v92.261c0 4.727 22.227 8.536 49.649 8.536 27.421 0 49.648-3.832 49.648-8.536V16.29c0 4.758-22.227 8.59-49.648 8.59Zm0 0"></path><path fill="#adadad" d="M1.746 16.29v92.315c0 4.727 22.227 8.536 49.649 8.536V24.879c-27.422 0-49.649-3.832-49.649-8.59Zm92.317 4.405v92.262c4.425-1.277 6.98-2.777 6.98-4.375V16.289c0 1.633-2.547 3.106-6.98 4.406Zm0 0"></path><path fill="#939699" d="M101.043 16.313c0-4.723-22.23-8.555-49.648-8.555-27.422 0-49.649 3.832-49.649 8.555 0 4.726 22.227 8.558 49.649 8.558 27.417 0 49.648-3.832 49.648-8.558ZM1.746 74.332c0 4.727 22.227 8.535 49.649 8.535 27.421 0 49.648-3.832 49.648-8.535v6.984c0 4.723-22.227 8.532-49.648 8.532-27.422 0-49.649-3.832-49.649-8.532Zm0-30.75c0 4.723 22.227 8.535 49.649 8.535 27.421 0 49.648-3.836 49.648-8.535v6.98c0 4.727-22.227 8.536-49.648 8.536-27.422 0-49.649-3.832-49.649-8.535Zm0 0"></path><path fill="#ecedf0" d="M126.64 93.09c0 16.281-13.195 29.48-29.476 29.48s-29.48-13.199-29.48-29.48 13.199-29.477 29.48-29.477 29.477 13.196 29.477 29.477Zm0 0"></path><path fill="#3faa00" d="M123.004 93.09c0 14.273-11.57 25.84-25.84 25.84-14.273 0-25.84-11.567-25.84-25.84 0-14.27 11.567-25.84 25.84-25.84 14.27 0 25.84 11.57 25.84 25.84Zm0 0"></path><path fill="#fff" d="m88.063 105.906 24.027-13.87-24.028-13.872Zm0 0"></path>
  </symbol>

  <symbol id="python" viewBox="0 0 128 128">
    <linearGradient id="python-original-a" gradientUnits="userSpaceOnUse" x1="70.252" y1="1237.476" x2="170.659" y2="1151.089" gradientTransform="matrix(.563 0 0 -.568 -29.215 707.817)"><stop offset="0" stop-color="#5A9FD4"></stop><stop offset="1" stop-color="#306998"></stop></linearGradient><linearGradient id="python-original-b" gradientUnits="userSpaceOnUse" x1="209.474" y1="1098.811" x2="173.62" y2="1149.537" gradientTransform="matrix(.563 0 0 -.568 -29.215 707.817)"><stop offset="0" stop-color="#FFD43B"></stop><stop offset="1" stop-color="#FFE873"></stop></linearGradient><path fill="url(#python-original-a)" d="M63.391 1.988c-4.222.02-8.252.379-11.8 1.007-10.45 1.846-12.346 5.71-12.346 12.837v9.411h24.693v3.137H29.977c-7.176 0-13.46 4.313-15.426 12.521-2.268 9.405-2.368 15.275 0 25.096 1.755 7.311 5.947 12.519 13.124 12.519h8.491V67.234c0-8.151 7.051-15.34 15.426-15.34h24.665c6.866 0 12.346-5.654 12.346-12.548V15.833c0-6.693-5.646-11.72-12.346-12.837-4.244-.706-8.645-1.027-12.866-1.008zM50.037 9.557c2.55 0 4.634 2.117 4.634 4.721 0 2.593-2.083 4.69-4.634 4.69-2.56 0-4.633-2.097-4.633-4.69-.001-2.604 2.073-4.721 4.633-4.721z" transform="translate(0 10.26)"></path><path fill="url(#python-original-b)" d="M91.682 28.38v10.966c0 8.5-7.208 15.655-15.426 15.655H51.591c-6.756 0-12.346 5.783-12.346 12.549v23.515c0 6.691 5.818 10.628 12.346 12.547 7.816 2.297 15.312 2.713 24.665 0 6.216-1.801 12.346-5.423 12.346-12.547v-9.412H63.938v-3.138h37.012c7.176 0 9.852-5.005 12.348-12.519 2.578-7.735 2.467-15.174 0-25.096-1.774-7.145-5.161-12.521-12.348-12.521h-9.268zM77.809 87.927c2.561 0 4.634 2.097 4.634 4.692 0 2.602-2.074 4.719-4.634 4.719-2.55 0-4.633-2.117-4.633-4.719 0-2.595 2.083-4.692 4.633-4.692z" transform="translate(0 10.26)"></path><radialGradient id="python-original-c" cx="1825.678" cy="444.45" r="26.743" gradientTransform="matrix(0 -.24 -1.055 0 532.979 557.576)" gradientUnits="userSpaceOnUse"><stop offset="0" stop-color="#B8B8B8" stop-opacity=".498"></stop><stop offset="1" stop-color="#7F7F7F" stop-opacity="0"></stop></radialGradient><path opacity=".444" fill="url(#python-original-c)" d="M97.309 119.597c0 3.543-14.816 6.416-33.091 6.416-18.276 0-33.092-2.873-33.092-6.416 0-3.544 14.815-6.417 33.092-6.417 18.275 0 33.091 2.872 33.091 6.417z"></path>
  </symbol>

  <symbol id="html" viewBox="0 0 128 128">
    <path fill="#E44D26" d="M19.037 113.876L9.032 1.661h109.936l-10.016 112.198-45.019 12.48z"></path><path fill="#F16529" d="M64 116.8l36.378-10.086 8.559-95.878H64z"></path><path fill="#EBEBEB" d="M64 52.455H45.788L44.53 38.361H64V24.599H29.489l.33 3.692 3.382 37.927H64zm0 35.743l-.061.017-15.327-4.14-.979-10.975H33.816l1.928 21.609 28.193 7.826.063-.017z"></path><path fill="#fff" d="M63.952 52.455v13.763h16.947l-1.597 17.849-15.35 4.143v14.319l28.215-7.82.207-2.325 3.234-36.233.335-3.696h-3.708zm0-27.856v13.762h33.244l.276-3.092.628-6.978.329-3.692z"></path>
  </symbol>

  <symbol id="css" viewBox="0 0 128 128">
    <path fill="#1572B6" d="M18.814 114.123L8.76 1.352h110.48l-10.064 112.754-45.243 12.543-45.119-12.526z"></path><path fill="#33A9DC" d="M64.001 117.062l36.559-10.136 8.601-96.354h-45.16v106.49z"></path><path fill="#fff" d="M64.001 51.429h18.302l1.264-14.163H64.001V23.435h34.682l-.332 3.711-3.4 38.114h-30.95V51.429z"></path><path fill="#EBEBEB" d="M64.083 87.349l-.061.018-15.403-4.159-.985-11.031H33.752l1.937 21.717 28.331 7.863.063-.018v-14.39z"></path><path fill="#fff" d="M81.127 64.675l-1.666 18.522-15.426 4.164v14.39l28.354-7.858.208-2.337 2.406-26.881H81.127z"></path><path fill="#EBEBEB" d="M64.048 23.435v13.831H30.64l-.277-3.108-.63-7.012-.331-3.711h34.646zm-.047 27.996v13.831H48.792l-.277-3.108-.631-7.012-.33-3.711h16.447z"></path>
  </symbol>

  <symbol id="c++" viewBox="0 0 128 128">
    <path fill="#00599c" d="M118.766 95.82c.89-1.543 1.441-3.28 1.441-4.843V36.78c0-1.558-.55-3.297-1.441-4.84l-55.32 31.94Zm0 0"></path><path fill="#004482" d="m68.36 126.586 46.933-27.094c1.352-.781 2.582-2.129 3.473-3.672l-55.32-31.94L8.12 95.82c.89 1.543 2.121 2.89 3.473 3.672l46.933 27.094c2.703 1.562 7.13 1.562 9.832 0Zm0 0"></path><path fill="#659ad2" d="M118.766 31.941c-.891-1.546-2.121-2.894-3.473-3.671L68.359 1.172c-2.703-1.563-7.129-1.563-9.832 0L11.594 28.27C8.89 29.828 6.68 33.66 6.68 36.78v54.196c0 1.562.55 3.3 1.441 4.843L63.445 63.88Zm0 0"></path><path fill="#fff" d="M63.445 26.035c-20.867 0-37.843 16.977-37.843 37.844s16.976 37.844 37.843 37.844c13.465 0 26.024-7.247 32.77-18.91L79.84 73.335c-3.38 5.84-9.66 9.465-16.395 9.465-10.433 0-18.922-8.488-18.922-18.922 0-10.434 8.49-18.922 18.922-18.922 6.73 0 13.017 3.629 16.39 9.465l16.38-9.477c-6.75-11.664-19.305-18.91-32.77-18.91zM92.88 57.57v4.207h-4.207v4.203h4.207v4.207h4.203V65.98h4.203v-4.203h-4.203V57.57H92.88zm15.766 0v4.207h-4.204v4.203h4.204v4.207h4.207V65.98h4.203v-4.203h-4.203V57.57h-4.207z"></path>
  </symbol>

  <symbol id="c" viewBox="0 0 128 128">
    <path fill="#659AD3" d="M115.4 30.7L67.1 2.9c-.8-.5-1.9-.7-3.1-.7-1.2 0-2.3.3-3.1.7l-48 27.9c-1.7 1-2.9 3.5-2.9 5.4v55.7c0 1.1.2 2.4 1 3.5l106.8-62c-.6-1.2-1.5-2.1-2.4-2.7z"></path><path fill="#03599C" d="M10.7 95.3c.5.8 1.2 1.5 1.9 1.9l48.2 27.9c.8.5 1.9.7 3.1.7 1.2 0 2.3-.3 3.1-.7l48-27.9c1.7-1 2.9-3.5 2.9-5.4V36.1c0-.9-.1-1.9-.6-2.8l-106.6 62z"></path><path fill="#fff" d="M85.3 76.1C81.1 83.5 73.1 88.5 64 88.5c-13.5 0-24.5-11-24.5-24.5s11-24.5 24.5-24.5c9.1 0 17.1 5 21.3 12.5l13-7.5c-6.8-11.9-19.6-20-34.3-20-21.8 0-39.5 17.7-39.5 39.5s17.7 39.5 39.5 39.5c14.6 0 27.4-8 34.2-19.8l-12.9-7.6z"></path>
  </symbol>

  <symbol id="java" viewBox="0 0 128 128">
    <path fill="#0074BD" d="M47.617 98.12s-4.767 2.774 3.397 3.71c9.892 1.13 14.947.968 25.845-1.092 0 0 2.871 1.795 6.873 3.351-24.439 10.47-55.308-.607-36.115-5.969zm-2.988-13.665s-5.348 3.959 2.823 4.805c10.567 1.091 18.91 1.18 33.354-1.6 0 0 1.993 2.025 5.132 3.131-29.542 8.64-62.446.68-41.309-6.336z"></path><path fill="#EA2D2E" d="M69.802 61.271c6.025 6.935-1.58 13.17-1.58 13.17s15.289-7.891 8.269-17.777c-6.559-9.215-11.587-13.792 15.635-29.58 0 .001-42.731 10.67-22.324 34.187z"></path><path fill="#0074BD" d="M102.123 108.229s3.529 2.91-3.888 5.159c-14.102 4.272-58.706 5.56-71.094.171-4.451-1.938 3.899-4.625 6.526-5.192 2.739-.593 4.303-.485 4.303-.485-4.953-3.487-32.013 6.85-13.743 9.815 49.821 8.076 90.817-3.637 77.896-9.468zM49.912 70.294s-22.686 5.389-8.033 7.348c6.188.828 18.518.638 30.011-.326 9.39-.789 18.813-2.474 18.813-2.474s-3.308 1.419-5.704 3.053c-23.042 6.061-67.544 3.238-54.731-2.958 10.832-5.239 19.644-4.643 19.644-4.643zm40.697 22.747c23.421-12.167 12.591-23.86 5.032-22.285-1.848.385-2.677.72-2.677.72s.688-1.079 2-1.543c14.953-5.255 26.451 15.503-4.823 23.725 0-.002.359-.327.468-.617z"></path><path fill="#EA2D2E" d="M76.491 1.587S89.459 14.563 64.188 34.51c-20.266 16.006-4.621 25.13-.007 35.559-11.831-10.673-20.509-20.07-14.688-28.815C58.041 28.42 81.722 22.195 76.491 1.587z"></path><path fill="#0074BD" d="M52.214 126.021c22.476 1.437 57-.8 57.817-11.436 0 0-1.571 4.032-18.577 7.231-19.186 3.612-42.854 3.191-56.887.874 0 .001 2.875 2.381 17.647 3.331z"></path>
  </symbol>

  <symbol id="scala" viewBox="0 0 128 128">
    <path d="M25 110.437V94.874h5.616c3.113 0 8.052-.203 11.03-.474l5.278-.406-7.038-1.894c-3.924-1.015-8.864-2.504-10.961-3.316L25 87.364V55.627h6.293c3.383 0 8.323-.203 10.894-.473l4.737-.406-8.323-2.233C34 51.366 29.128 49.809 27.639 49.2L25 47.982v-30.72l2.098-.473c1.15-.203 3.992-.406 6.293-.406 11.367 0 38.366-3.722 51.628-7.105 9.27-2.436 15.698-4.872 17.931-6.902 1.15-1.015 1.218-.406 1.218 14.548v15.63l-1.624 1.219-1.624 1.285 3.248 2.842v33.9l-1.624 1.218-1.624 1.286 3.248 2.842v33.9l-1.76 1.353c-1.894 1.489-9.202 3.993-17.524 6.09C71.892 121.737 40.157 126 29.33 126H25z" fill="#390d09"></path><g fill="#de3423"><path d="M25 110.572V95.077l11.842-.474c12.315-.473 21.45-1.488 34.847-3.789 15.225-2.639 30.246-7.375 31.803-10.082.406-.677.676 4.534.676 14.616v15.698l-1.76 1.353c-1.894 1.489-9.202 3.993-17.524 6.09C71.892 121.737 40.157 126 29.33 126H25zM25 71.327V55.83l11.842-.406c13.127-.541 23.344-1.691 36.877-4.195 15.157-2.842 28.96-7.443 29.976-9.947.203-.473.406 6.09.406 14.616.067 13.533-.068 15.698-1.083 16.78-2.368 2.64-20.638 7.376-39.449 10.286-11.435 1.76-30.381 3.79-35.66 3.79H25zM25 32.352V17.195l2.098-.406c1.15-.203 3.992-.406 6.293-.406 11.367 0 38.366-3.722 51.628-7.105 9.27-2.436 15.698-4.872 17.931-6.902 1.15-1.015 1.218-.406 1.218 14.48 0 14.548-.067 15.63-1.285 16.714-1.827 1.691-14.345 5.548-24.09 7.51-15.765 3.113-41.951 6.429-50.883 6.429H25z"></path></g>
  </symbol>
          
  <symbol id="react" viewBox="0 0 128 128">
    <g fill="#61DAFB"><circle cx="64" cy="64" r="11.4"></circle><path d="M107.3 45.2c-2.2-.8-4.5-1.6-6.9-2.3.6-2.4 1.1-4.8 1.5-7.1 2.1-13.2-.2-22.5-6.6-26.1-1.9-1.1-4-1.6-6.4-1.6-7 0-15.9 5.2-24.9 13.9-9-8.7-17.9-13.9-24.9-13.9-2.4 0-4.5.5-6.4 1.6-6.4 3.7-8.7 13-6.6 26.1.4 2.3.9 4.7 1.5 7.1-2.4.7-4.7 1.4-6.9 2.3C8.2 50 1.4 56.6 1.4 64s6.9 14 19.3 18.8c2.2.8 4.5 1.6 6.9 2.3-.6 2.4-1.1 4.8-1.5 7.1-2.1 13.2.2 22.5 6.6 26.1 1.9 1.1 4 1.6 6.4 1.6 7.1 0 16-5.2 24.9-13.9 9 8.7 17.9 13.9 24.9 13.9 2.4 0 4.5-.5 6.4-1.6 6.4-3.7 8.7-13 6.6-26.1-.4-2.3-.9-4.7-1.5-7.1 2.4-.7 4.7-1.4 6.9-2.3 12.5-4.8 19.3-11.4 19.3-18.8s-6.8-14-19.3-18.8zM92.5 14.7c4.1 2.4 5.5 9.8 3.8 20.3-.3 2.1-.8 4.3-1.4 6.6-5.2-1.2-10.7-2-16.5-2.5-3.4-4.8-6.9-9.1-10.4-13 7.4-7.3 14.9-12.3 21-12.3 1.3 0 2.5.3 3.5.9zM81.3 74c-1.8 3.2-3.9 6.4-6.1 9.6-3.7.3-7.4.4-11.2.4-3.9 0-7.6-.1-11.2-.4-2.2-3.2-4.2-6.4-6-9.6-1.9-3.3-3.7-6.7-5.3-10 1.6-3.3 3.4-6.7 5.3-10 1.8-3.2 3.9-6.4 6.1-9.6 3.7-.3 7.4-.4 11.2-.4 3.9 0 7.6.1 11.2.4 2.2 3.2 4.2 6.4 6 9.6 1.9 3.3 3.7 6.7 5.3 10-1.7 3.3-3.4 6.6-5.3 10zm8.3-3.3c1.5 3.5 2.7 6.9 3.8 10.3-3.4.8-7 1.4-10.8 1.9 1.2-1.9 2.5-3.9 3.6-6 1.2-2.1 2.3-4.2 3.4-6.2zM64 97.8c-2.4-2.6-4.7-5.4-6.9-8.3 2.3.1 4.6.2 6.9.2 2.3 0 4.6-.1 6.9-.2-2.2 2.9-4.5 5.7-6.9 8.3zm-18.6-15c-3.8-.5-7.4-1.1-10.8-1.9 1.1-3.3 2.3-6.8 3.8-10.3 1.1 2 2.2 4.1 3.4 6.1 1.2 2.2 2.4 4.1 3.6 6.1zm-7-25.5c-1.5-3.5-2.7-6.9-3.8-10.3 3.4-.8 7-1.4 10.8-1.9-1.2 1.9-2.5 3.9-3.6 6-1.2 2.1-2.3 4.2-3.4 6.2zM64 30.2c2.4 2.6 4.7 5.4 6.9 8.3-2.3-.1-4.6-.2-6.9-.2-2.3 0-4.6.1-6.9.2 2.2-2.9 4.5-5.7 6.9-8.3zm22.2 21l-3.6-6c3.8.5 7.4 1.1 10.8 1.9-1.1 3.3-2.3 6.8-3.8 10.3-1.1-2.1-2.2-4.2-3.4-6.2zM31.7 35c-1.7-10.5-.3-17.9 3.8-20.3 1-.6 2.2-.9 3.5-.9 6 0 13.5 4.9 21 12.3-3.5 3.8-7 8.2-10.4 13-5.8.5-11.3 1.4-16.5 2.5-.6-2.3-1-4.5-1.4-6.6zM7 64c0-4.7 5.7-9.7 15.7-13.4 2-.8 4.2-1.5 6.4-2.1 1.6 5 3.6 10.3 6 15.6-2.4 5.3-4.5 10.5-6 15.5C15.3 75.6 7 69.6 7 64zm28.5 49.3c-4.1-2.4-5.5-9.8-3.8-20.3.3-2.1.8-4.3 1.4-6.6 5.2 1.2 10.7 2 16.5 2.5 3.4 4.8 6.9 9.1 10.4 13-7.4 7.3-14.9 12.3-21 12.3-1.3 0-2.5-.3-3.5-.9zM96.3 93c1.7 10.5.3 17.9-3.8 20.3-1 .6-2.2.9-3.5.9-6 0-13.5-4.9-21-12.3 3.5-3.8 7-8.2 10.4-13 5.8-.5 11.3-1.4 16.5-2.5.6 2.3 1 4.5 1.4 6.6zm9-15.6c-2 .8-4.2 1.5-6.4 2.1-1.6-5-3.6-10.3-6-15.6 2.4-5.3 4.5-10.5 6-15.5 13.8 4 22.1 10 22.1 15.6 0 4.7-5.8 9.7-15.7 13.4z"></path></g>
  </symbol>

  <symbol id="firebase" viewBox="0 0 128 128">
    <path fill="#ffa000" d="M17.474 103.276 33.229 2.462a2.91 2.91 0 0 1 5.44-.924l16.294 30.39 6.494-12.366a2.91 2.91 0 0 1 5.15 0l43.97 83.714H17.474Z"></path><path fill="#f57c00" d="M71.903 64.005 54.955 31.913l-37.481 71.363Z"></path><path fill="#ffca28" d="M110.577 103.276 98.51 28.604a2.913 2.913 0 0 0-1.984-2.286 2.906 2.906 0 0 0-2.94.714l-76.112 76.243 42.115 23.618a8.728 8.728 0 0 0 8.51 0l42.478-23.618Z"></path><path fill="#fff" fill-opacity=".2" d="M98.51 28.604a2.913 2.913 0 0 0-1.984-2.286 2.906 2.906 0 0 0-2.94.713L78.479 42.178 66.6 19.562a2.91 2.91 0 0 0-5.15 0l-6.494 12.365L38.662 1.538A2.91 2.91 0 0 0 35.605.044a2.907 2.907 0 0 0-2.384 2.425L17.474 103.276h-.051l.05.058.415.204 75.676-75.764a2.91 2.91 0 0 1 4.932 1.571l11.965 74.003.116-.073L98.51 28.603Zm-80.898 74.534L33.228 3.182A2.91 2.91 0 0 1 35.613.756a2.911 2.911 0 0 1 3.057 1.495l16.292 30.39 6.495-12.366a2.91 2.91 0 0 1 5.15 0L78.245 42.41 17.61 103.138Z"></path><path fill="#a52714" d="M68.099 126.18a8.728 8.728 0 0 1-8.51 0l-42.015-23.55-.102.647 42.115 23.61a8.728 8.728 0 0 0 8.51 0l42.48-23.61-.11-.67-42.37 23.575z" opacity=".2"></path>
  </symbol>

  <symbol id="tailwindcss" viewBox="0 0 128 128">
    <path d="M64.004 25.602c-17.067 0-27.73 8.53-32 25.597 6.398-8.531 13.867-11.73 22.398-9.597 4.871 1.214 8.352 4.746 12.207 8.66C72.883 56.629 80.145 64 96.004 64c17.066 0 27.73-8.531 32-25.602-6.399 8.536-13.867 11.735-22.399 9.602-4.87-1.215-8.347-4.746-12.207-8.66-6.27-6.367-13.53-13.738-29.394-13.738zM32.004 64c-17.066 0-27.73 8.531-32 25.602C6.402 81.066 13.87 77.867 22.402 80c4.871 1.215 8.352 4.746 12.207 8.66 6.274 6.367 13.536 13.738 29.395 13.738 17.066 0 27.73-8.53 32-25.597-6.399 8.531-13.867 11.73-22.399 9.597-4.87-1.214-8.347-4.746-12.207-8.66C55.128 71.371 47.868 64 32.004 64zm0 0" fill="#38bdf8"></path>
  </symbol>

  <symbol id="sveltekit" viewBox="0 0 128 128">
    <path d="M 110.43093,16.935847 C 98.552474,-0.076153 75.089104,-5.118154 58.130818,5.695846 l -29.793,19.000001 c -4.030441,2.529 -7.488786,5.871 -10.15468,9.814 -2.665895,3.943 -4.479469,8.399 -5.325138,13.083 a 25.478172,30.64 0 0 0 -0.572094,6.396 c 0.0183,5.831 1.446866,11.571 4.163485,16.729995 -2.546986,3.87201 -4.285721,8.22 -5.110602,12.78201 a 25.347621,30.483 0 0 0 0.345086,14.41199 c 1.072679,4.732998 3.078336,9.203998 5.900559,13.151998 11.877618,17.011 35.393374,22.053 52.299272,11.24 l 29.762238,-19.001 c 4.027946,-2.532 7.482126,-5.877998 10.141386,-9.824998 2.65841,-3.947 4.46282,-8.40699 5.29686,-13.093 0.3825,-2.107 0.57458,-4.244 0.5721,-6.386 -0.007,-5.81999 -1.41778,-11.550995 -4.11194,-16.708995 2.54616,-3.869 4.28489,-8.213 5.11143,-12.771 0.36921,-2.109 0.55713,-4.245 0.56212,-6.386 0.002,-7.595 -2.37152,-15 -6.78697,-21.178 z" fill="#ff3e00" id="path598" style="stroke-width:0.911885"></path><path d="m 55.218941,112.66204 a 28.463375,34.23 0 0 1 -5.953776,0.76 c -3.820895,0.001 -7.585244,-0.925 -10.970416,-2.7 -3.384341,-1.774 -6.288887,-4.343 -8.464177,-7.487 -2.655917,-3.716 -4.082827,-8.171 -4.080332,-12.74 a 15.657767,18.83 0 0 1 0.332613,-3.833 15.424937,18.55 0 0 1 0.719276,-2.782 l 0.562116,-1.708 1.51921,1.156 c 3.528195,2.591 7.470493,4.564 11.658097,5.834 l 1.104275,0.333 -0.103941,1.104 v 0.573 c -0.0025,1.381 0.427408,2.73 1.228174,3.854 0.646933,0.958 1.51838,1.744 2.537839,2.288 a 8.2621121,9.936 0 0 0 3.311997,0.837 8.2513022,9.923 0 0 0 1.79029,-0.229 7.2717563,8.745 0 0 0 1.832699,-0.802 l 29.760566,-19.094 c 0.892236,-0.566 1.627311,-1.349 2.135377,-2.276 0.507236,-0.927 0.771662,-1.968 0.768337,-3.026 -0.0084,-1.381 -0.449027,-2.725 -1.259773,-3.844 -0.656912,-0.946 -1.533347,-1.718 -2.553637,-2.252 a 8.3128357,9.997 0 0 0 -3.307008,-0.81 8.246313,9.917 0 0 0 -1.79029,0.23 6.9383115,8.344 0 0 0 -1.821058,0.801 l -11.346268,7.25 a 24.375558,29.314 0 0 1 -6.04774,2.656 c -1.945787,0.502 -3.945624,0.758 -5.954608,0.76 -3.820063,0 -7.582749,-0.926 -10.967089,-2.698 -3.384341,-1.772 -6.289718,-4.338 -8.467502,-7.478 -2.652591,-3.718 -4.079502,-8.172 -4.080334,-12.74 0.0016,-1.285 0.113089,-2.567 0.332615,-3.833 0.509728,-2.816 1.597374,-5.495 3.196411,-7.867 1.598207,-2.373 3.67205,-4.387 6.089317,-5.914 l 29.792168,-18.99 c 1.869286,-1.19 3.908205,-2.09 6.04774,-2.667 1.945787,-0.499 3.945625,-0.75 5.953776,-0.75 3.82921,-0.01 7.603538,0.91 10.999519,2.681 3.395981,1.77 6.311338,4.34 8.497439,7.486 2.636787,3.727 4.045417,8.184 4.028777,12.75 a 15.748404,18.939 0 0 1 -0.33344,3.844 15.407475,18.529 0 0 1 -0.71845,2.781 l -0.56211,1.708 -1.519216,-1.114 c -3.525699,-2.595 -7.468833,-4.568 -11.658096,-5.834 l -1.104275,-0.343 0.103941,-1.105 v -0.572 c 0,-1.385 -0.429072,-2.735 -1.228174,-3.865 -0.65608,-0.945 -1.530022,-1.716 -2.549481,-2.25 a 8.3086779,9.992 0 0 0 -3.301186,-0.813 8.2213671,9.887 0 0 0 -1.768671,0.271 6.8185708,8.2 0 0 0 -1.831867,0.802 l -29.792165,18.99 a 5.8797701,7.071 0 0 0 -1.836857,1.79 4.7505482,5.713 0 0 0 -0.962914,2.377 5.0365955,6.057 0 0 0 -0.135541,1.104 c -8.31e-4,1.378 0.42824,2.722 1.228174,3.844 0.655248,0.945 1.530021,1.717 2.548649,2.25 a 8.2986996,9.98 0 0 0 3.301186,0.812 8.2471446,9.918 0 0 0 1.79029,-0.23 6.9433007,8.35 0 0 0 1.832699,-0.801 l 11.367057,-7.292 a 24.218399,29.125 0 0 1 6.04774,-2.656 28.52574,34.305 0 0 1 5.953776,-0.76 c 3.821727,0 7.586076,0.925 10.972078,2.697 3.386003,1.772 6.293877,4.339 8.473325,7.48 2.652591,3.717 4.079498,8.171 4.080338,12.74 0.003,1.299 -0.11226,2.596 -0.34343,3.874 -0.506403,2.817 -1.594046,5.497 -3.192254,7.87 -1.599037,2.372 -3.673715,4.385 -6.093476,5.911 l -29.739779,18.99 a 24.308205,29.233 0 0 1 -6.057719,2.667 z" fill="#ffffff" id="path600" style="stroke-width:0.911885"></path>
  </symbol>

  <symbol id="express" viewBox="0 0 128 128">
    <path d="M126.67 98.44c-4.56 1.16-7.38.05-9.91-3.75-5.68-8.51-11.95-16.63-18-24.9-.78-1.07-1.59-2.12-2.6-3.45C89 76 81.85 85.2 75.14 94.77c-2.4 3.42-4.92 4.91-9.4 3.7l26.92-36.13L67.6 29.71c4.31-.84 7.29-.41 9.93 3.45 5.83 8.52 12.26 16.63 18.67 25.21 6.45-8.55 12.8-16.67 18.8-25.11 2.41-3.42 5-4.72 9.33-3.46-3.28 4.35-6.49 8.63-9.72 12.88-4.36 5.73-8.64 11.53-13.16 17.14-1.61 2-1.35 3.3.09 5.19C109.9 76 118.16 87.1 126.67 98.44zM1.33 61.74c.72-3.61 1.2-7.29 2.2-10.83 6-21.43 30.6-30.34 47.5-17.06C60.93 41.64 63.39 52.62 62.9 65H7.1c-.84 22.21 15.15 35.62 35.53 28.78 7.15-2.4 11.36-8 13.47-15 1.07-3.51 2.84-4.06 6.14-3.06-1.69 8.76-5.52 16.08-13.52 20.66-12 6.86-29.13 4.64-38.14-4.89C5.26 85.89 3 78.92 2 71.39c-.15-1.2-.46-2.38-.7-3.57q.03-3.04.03-6.08zm5.87-1.49h50.43c-.33-16.06-10.33-27.47-24-27.57-15-.12-25.78 11.02-26.43 27.57z"></path>
  </symbol>

  <symbol id="linux" viewBox="0 0 266 312">
    <path fill="white" d="M128.6640625 79.2793c0 1-1 1-1 1h-1c-1 0-1-1-2-2 0 0-1-1-1-2s0-1 1-1l2 1c1 1 2 2 2 3m-18-10c0-5-2-8-5-8 0 0 0 1-1 1v2h3c0 2 1 3 1 5h2m35-5c2 0 3 2 4 5h2c-1-1-1-2-1-3s0-2-1-3-2-2-3-2c0 0-1 1-2 1 0 1 1 1 1 2m-30 16c-1 0-1 0-1-1s0-2 1-3c2 0 3-1 3-1 1 0 1 1 1 1 0 1-1 2-3 4h-1m-11-1c-4-2-5-5-5-10 0-3 0-5 2-7 1-2 3-3 5-3s3 1 5 3c1 3 2 6 2 9v2h1v-1c1 0 1-2 1-6 0-3 0-6-2-9s-4-5-8-5c-3 0-6 2-7 5-2 4-2.4 7-2.4 12 0 4 1.4 8 5.4 12 1-1 2-1 3-2m125 141c1 0 1-.4 1-1.3 0-2.2-1-4.8-4-7.7-3-3-8-4.9-14-5.7-1-.1-2-.1-2-.1-1-.2-1-.2-2-.2-1-.1-3-.3-4-.5 3-9.3 4-17.5 4-24.7 0-10-2-17-6-23s-8-9-13-10c-1 1-1 1-1 2 5 2 10 6 13 12 3 7 4 13 4 20 0 5.6-1 13.9-5 24.5-4 1.6-8 5.3-11 11.1 0 .9 0 1.4 1 1.4 0 0 1-.9 2-2.6 2-1.7 3-3.4 5-5.1 3-1.7 5-2.6 8-2.6 5 0 10 .7 13 2.1 4 1.3 6 2.7 7 4.3 1 1.5 2 2.9 3 4.2 0 1.3 1 1.9 1 1.9m-92-145c-1-1-1-3-1-5 0-4 0-6 2-9 2-2 4-3 6-3 3 0 5 2 7 4 1 3 2 5 2 8 0 5-2 8-6 9 0 0 1 1 2 1 2 0 3 1 5 2 1-6 2-10 2-15 0-6-1-10-3-13-3-3-6-4-10-4-3 0-6 1-9 3-2 3-3 5-3 8 0 5 1 9 3 13 1 0 2 1 3 1m12 16c-13 9-23 13-31 13-7 0-14-3-20-8 1 2 2 4 3 5l6 6c4 4 9 6 14 6 7 0 15-4 25-11l9-6c2-2 4-4 4-7 0-1 0-2-1-2-1-2-6-5-16-8-9-4-16-6-20-6-3 0-8 2-15 6-6 4-10 8-10 12 0 0 1 1 2 3 6 5 12 8 18 8 8 0 18-4 31-14v2c1 0 1 1 1 1m23 202c4 7.52 11 11.3 19 11.3 2 0 4-.3 6-.9 2-.4 4-1.1 5-1.9 1-.7 2-1.4 3-2.2 2-.7 2-1.2 3-1.7l17-14.7c4-3.19 8-5.98 13-8.4 4-2.4 8-4 10-4.9 3-.8 5-2 7-3.6 1-1.5 2-3.4 2-5.8 0-2.9-2-5.1-4-6.7s-4-2.7-6-3.4-4-2.3-7-5c-2-2.6-4-6.2-5-10.9l-1-5.8c-1-2.7-1-4.7-2-5.8 0-.3 0-.4-1-.4s-3 .9-4 2.6c-2 1.7-4 3.6-6 5.6-1 2-4 3.8-6 5.5-3 1.7-6 2.6-8 2.6-8 0-12-2.2-15-6.5-2-3.2-3-6.9-4-11.1-2-1.7-3-2.6-5-2.6-5 0-7 5.2-7 15.7v31.1c0 .9-1 2.9-1 6-1 3.1-1 6.62-1 10.6l-2 11.1v.17m-145-5.29c9.3 1.36 20 4.27 32.1 8.71 12.1 4.4 19.5 6.7 22.2 6.7 7 0 12.8-3.1 17.6-9.09 1-1.94 1-4.22 1-6.84 0-9.45-5.7-21.4-17.1-35.9l-6.8-9.1c-1.4-1.9-3.1-4.8-5.3-8.7-2.1-3.9-4-6.9-5.5-9-1.3-2.3-3.4-4.6-6.1-6.9-2.6-2.3-5.6-3.8-8.9-4.6-4.2.8-7.1 2.2-8.5 4.1s-2.2 4-2.4 6.2c-.3 2.1-.9 3.5-1.9 4.2-1 .6-2.7 1.1-5 1.6-.5 0-1.4 0-2.7.1h-2.7c-5.3 0-8.9.6-10.8 1.6-2.5 2.9-3.8 6.2-3.8 9.7 0 1.6.4 4.3 1.2 8.1.8 3.7 1.2 6.7 1.2 8.8 0 4.1-1.2 8.2-3.7 12.3-2.5 4.3-3.8 7.5-3.8 9.78 1 3.88 7.6 6.61 19.7 8.21m33.3-90.9c0-6.9 1.8-14.5 5.5-23.5 3.6-9 7.2-15 10.7-19-.2-1-.7-1-1.5-1l-1-1c-2.9 3-6.4 10-10.6 20-4.2 9-6.4 17.3-6.4 23.4 0 4.5 1.1 8.4 3.1 11.8 2.2 3.3 7.5 8.1 15.9 14.2l10.6 6.9c11.3 9.8 17.3 16.6 17.3 20.6 0 2.1-1 4.2-4 6.5-2 2.4-4.7 3.6-7 3.6-.2 0-.3.2-.3.7 0 .1 1 2.1 3.1 6 4.2 5.7 13.2 8.5 25.2 8.5 22 0 39-9 52-27 0-5 0-8.1-1-9.4v-3.7c0-6.5 1-11.4 3-14.6s4-4.7 7-4.7c2 0 4 .7 6 2.2 1-7.7 1-14.4 1-20.4 0-9.1 0-16.6-2-23.6-1-6-3-11-5-15l-6-9c-2-3-3-6-5-9-1-4-2-7-2-12-3-5-5-10-8-15-2-5-4-10-6-14l-9 7c-10 7-18 10-25 10-6 0-11-1-14-5l-6-5c0 3-1 7-3 11l-6.3 12c-2.8 7-4.3 11-4.6 14-.4 2-.7 4-.9 4l-7.5 15c-8.1 15-12.2 28.9-12.2 40.4 0 2.3.2 4.7.6 7.1-4.5-3.1-6.7-7.4-6.7-13m71.6 94.6c-13 0-23 1.76-30 5.25v-.3c-5 6-10.6 9.1-18.4 9.1-4.9 0-12.6-1.9-23-5.7-10.5-3.6-19.8-6.36-27.9-8.18-.8-.23-2.6-.57-5.5-1.03-2.8-.45-5.4-.91-7.7-1.37-2.1-.45-4.5-1.13-7.1-2.05-2.5-.79-4.5-1.82-6-3.07-1.38-1.26-2.06-2.68-2.06-4.27 0-1.6.34-3.31 1.02-5.13.64-1.1 1.34-2.2 2.04-3.2.7-1.1 1.3-2.1 1.7-3.1.6-.9 1-1.8 1.4-2.8.4-.9.8-1.8 1-2.9.2-1 .4-2 .4-3s-.4-4-1.2-9.3c-.8-5.2-1.2-8.5-1.2-9.9 0-4.4 1-7.9 3.2-10.4s4.3-3.8 6.5-3.8h11.5c.9 0 2.3-.5 4.4-1.7.7-1.6 1.3-2.9 1.7-4.1.5-1.2.7-2.1.9-2.5.2-.6.4-1.2.6-1.7.4-.7.9-1.5 1.6-2.3-.8-1-1.2-2.3-1.2-3.9 0-1.1 0-2.1.2-2.7 0-3.6 1.7-8.7 5.3-15.4l3.5-6.3c2.9-5.4 5.1-9.4 6.7-13.4 1.7-4 3.5-10 5.5-18 1.6-7 5.4-14 11.4-21l7.5-9c5.2-6 8.6-11 10.5-15s2.9-9 2.9-13c0-2-.5-8-1.6-18-1-10-1.5-20-1.5-29 0-7 .6-12 1.9-17s3.6-10 7-14c3-4 7-8 13-10s13-3 21-3c3 0 6 0 9 1 3 0 7 1 12 3 4 2 8 4 11 7 4 3 7 8 10 13 2 6 4 12 5 20 1 5 1 10 2 17 0 6 1 10 1 13 1 3 1 7 2 12 1 4 2 8 4 11 2 4 4 8 7 12 3 5 7 10 11 16 9 10 16 21 20 32 5 10 8 23 8 36.9 0 6.9-1 13.6-3 20.1 2 0 3 .8 4 2.2s2 4.4 3 9.1l1 7.4c1 2.2 2 4.3 5 6.1 2 1.8 4 3.3 7 4.5 2 1 5 2.4 7 4.2 2 2 3 4.1 3 6.3 0 3.4-1 5.9-3 7.7-2 2-4 3.4-7 4.3-2 1-6 3-12 5.82-5 2.96-10 6.55-15 10.8l-10 8.51c-4 3.9-8 6.7-11 8.4-3 1.8-7 2.7-11 2.7l-7-.8c-8-2.1-13-6.1-16-12.2-16-1.94-29-2.9-37-2.9"/>
  </symbol>

  <symbol id="wireshark" viewbox="0 0 50 50">
    <path fill="white" d="M45.623 11.167c-13.376.21-20.985 8.08-24.973 15.726-3.497 6.676-4.234 12.43-4.418 14.002L0 41.056v2.638l17.336-.16a1.32 1.32 0 0 0 1.289-1.209s.675-7.1 4.356-14.21c3.436-6.64 9.45-13.094 20.3-14.106-6.688 13.34.675 28.802.675 28.802a1.32 1.32 0 0 0 1.166.761L64 43.73v-2.638l-17.948-.16c-.86-2.013-6.565-16.315.675-27.74a1.32 1.32 0 0 0-1.104-2.025z"/>
  </symbol>

  <symbol id="burp suite" viewBox="0 0 50 50">
    <path fill="white" d="M 8 4 C 5.800781 4 4 5.800781 4 8 L 4 42 C 4 44.199219 5.800781 46 8 46 L 42 46 C 44.199219 46 46 44.199219 46 42 L 46 8 C 46 5.800781 44.199219 4 42 4 Z M 8 6 L 24 6 L 24 9.585938 L 12.585938 21 L 24 21 L 24 30 L 32.585938 30 L 24 38.585938 L 24 44 L 8 44 C 6.882813 44 6 43.117188 6 42 L 6 8 C 6 6.882813 6.882813 6 8 6 Z M 26 6 L 42 6 C 43.117188 6 44 6.882813 44 8 L 44 42 C 44 43.117188 43.117188 44 42 44 L 26 44 L 26 39.414063 L 37.414063 28 L 26 28 L 26 19 L 17.414063 19 L 26 10.414063 Z"></path>
  </symbol>

  <symbol id="bash shell" viewBox="0 0 128 128">
    <path fill="none" d="M4.24 4.24h119.53v119.53H4.24z"></path><path fill="white" d="M109.01 28.64L71.28 6.24c-2.25-1.33-4.77-2-7.28-2s-5.03.67-7.28 2.01l-37.74 22.4c-4.5 2.67-7.28 7.61-7.28 12.96v44.8c0 5.35 2.77 10.29 7.28 12.96l37.73 22.4c2.25 1.34 4.76 2 7.28 2 2.51 0 5.03-.67 7.28-2l37.74-22.4c4.5-2.67 7.28-7.62 7.28-12.96V41.6c0-5.34-2.77-10.29-7.28-12.96zM79.79 98.59l.06 3.22c0 .39-.25.83-.55.99l-1.91 1.1c-.3.15-.56-.03-.56-.42l-.03-3.17c-1.63.68-3.29.84-4.34.42-.2-.08-.29-.37-.21-.71l.69-2.91c.06-.23.18-.46.34-.6.06-.06.12-.1.18-.13.11-.06.22-.07.31-.03 1.14.38 2.59.2 3.99-.5 1.78-.9 2.97-2.72 2.95-4.52-.02-1.64-.9-2.31-3.05-2.33-2.74.01-5.3-.53-5.34-4.57-.03-3.32 1.69-6.78 4.43-8.96l-.03-3.25c0-.4.24-.84.55-1l1.85-1.18c.3-.15.56.04.56.43l.03 3.25c1.36-.54 2.54-.69 3.61-.44.23.06.34.38.24.75l-.72 2.88c-.06.22-.18.44-.33.58a.77.77 0 01-.19.14c-.1.05-.19.06-.28.05-.49-.11-1.65-.36-3.48.56-1.92.97-2.59 2.64-2.58 3.88.02 1.48.77 1.93 3.39 1.97 3.49.06 4.99 1.58 5.03 5.09.05 3.44-1.79 7.15-4.61 9.41zm26.34-60.5l-35.7 22.05c-4.45 2.6-7.73 5.52-7.74 10.89v43.99c0 3.21 1.3 5.29 3.29 5.9-.65.11-1.32.19-1.98.19-2.09 0-4.15-.57-5.96-1.64l-37.73-22.4c-3.69-2.19-5.98-6.28-5.98-10.67V41.6c0-4.39 2.29-8.48 5.98-10.67l37.74-22.4c1.81-1.07 3.87-1.64 5.96-1.64s4.15.57 5.96 1.64l37.74 22.4c3.11 1.85 5.21 5.04 5.8 8.63-1.27-2.67-4.09-3.39-7.38-1.47z"></path><path fill="#4FA847" d="M99.12 90.73l-9.4 5.62c-.25.15-.43.31-.43.61v2.46c0 .3.2.43.45.28l9.54-5.8c.25-.15.29-.42.29-.72v-2.17c0-.3-.2-.42-.45-.28z"></path>
  </symbol>
          


          
          
          

          
          

          
          
          
          
                 

  <!-- Add more symbols here as needed -->

</svg>